<svg width="264" height="242" viewBox="0 0 264 242" fill="none" xmlns="http://www.w3.org/2000/svg">
<g filter="url(#filter0_f_1_2)">
<path d="M117.279 163.174L82.2437 166.749L39.6362 30.6418L72.2456 33.9986L117.279 163.174Z" stroke="#DCCDCD" stroke-width="40"/>
</g>
<mask id="path-2-inside-1_1_2" fill="white">
<path d="M75.2 63L88 149L64 146.068V63H75.2Z"/>
</mask>
<path d="M88 149L84.8473 174.808L118.744 178.949L113.717 145.172L88 149ZM75.2 63L100.917 59.1724L97.6166 37H75.2V63ZM64 63V37H38V63H64ZM64 146.068H38V169.085L60.8473 171.876L64 146.068ZM113.717 145.172L100.917 59.1724L49.4833 66.8276L62.2833 152.828L113.717 145.172ZM75.2 37H64V89H75.2V37ZM38 63V146.068H90V63H38ZM60.8473 171.876L84.8473 174.808L91.1527 123.192L67.1527 120.26L60.8473 171.876Z" fill="#FF5B37" mask="url(#path-2-inside-1_1_2)"/>
<path d="M69.5498 193.268L64.0615 186.996L9.07305 13.1136L9.78622 7.05165L13.2635 4.15394L86.9172 11.8563L90.1946 14.4782L93.2806 21.9727L106.732 57.3463L147.804 180.066L145.765 186.862L140.646 188.568L80.5938 194.967L69.5498 193.268Z" stroke="#6D0F87" stroke-width="8"/>
<path d="M177.218 139.043L213.665 137.439L214.091 145.616L177.279 144.912L177.218 139.043Z" stroke="#6D0F87" stroke-width="44"/>
<path d="M215.5 118.5L207.5 104.5L198.5 100.5L188.5 101.5L182.5 106L180.5 118.5" stroke="#6D0F87" stroke-width="4"/>
<g filter="url(#filter1_d_1_2)">
<path d="M141.276 77.7544L153.487 114.613L106.621 122.026L101.409 82.8284L141.276 77.7544Z" stroke="#FF5733" stroke-width="47" shape-rendering="crispEdges"/>
</g>
<path d="M162.5 164L167 174L181.5 171.5L194 170.5L212 166.5L220 163.5" stroke="#6D0F87" stroke-width="3"/>
<path d="M234 164.5L244 163L247 160L245 141.5L240.5 120.5L238 107L201.5 114L183.5 120C183.5 120 191.5 130 186 127.5" stroke="#6D0F87" stroke-width="3"/>
<mask id="path-10-inside-2_1_2" fill="white">
<path d="M118 149.5L116.5 143L124.5 141V146.5V150.5L124 157L122.5 161L120 165L115 167L110.5 168L103.5 167L100.5 166.5L95 162.5L97.5 165L99.5 168.5L101.5 172L102.5 177L101.5 180L99.5 181.5L97 183C96.3333 182.833 94.9 182.5 94.5 182.5C94 182.5 92.5 180.5 92.5 180C92.5 179.6 91.5 177.833 91 177L90.5 170V162.5V159L92 157.5L93.5 156.5L96 157.5L99.5 160.5C101.667 161.333 106.1 162.9 106.5 162.5C106.9 162.1 109 162.333 110 162.5L114.5 160L117 157.5L118 153.5V149.5Z"/>
</mask>
<path d="M116.5 143L111.164 121.657L90.2056 126.897L95.0634 147.947L116.5 143ZM118 149.5H140V146.994L139.437 144.553L118 149.5ZM118 153.5L139.343 158.836L140 156.208V153.5H118ZM117 157.5L132.556 173.056L136.865 168.747L138.343 162.836L117 157.5ZM114.5 160L125.184 179.231L127.878 177.735L130.056 175.556L114.5 160ZM110 162.5L106.383 184.201L113.965 185.464L120.684 181.731L110 162.5ZM99.5 160.5L85.1826 177.204L88.0624 179.672L91.6025 181.034L99.5 160.5ZM96 157.5L110.317 140.796L107.552 138.426L104.171 137.074L96 157.5ZM93.5 156.5L101.671 136.074L90.9256 131.776L81.2966 138.195L93.5 156.5ZM92 157.5L79.7966 139.195L77.984 140.403L76.4437 141.944L92 157.5ZM90.5 159L74.9437 143.444L68.5 149.887V159H90.5ZM90.5 170H68.5V170.785L68.5559 171.567L90.5 170ZM91 177L69.0559 178.567L69.4305 183.811L72.1352 188.319L91 177ZM97 183L91.6642 204.343L100.505 206.553L108.319 201.865L97 183ZM99.5 181.5L110.819 200.365L111.792 199.781L112.7 199.1L99.5 181.5ZM101.5 180L114.7 197.6L120.198 193.477L122.371 186.957L101.5 180ZM102.5 177L123.371 183.957L125.219 178.414L124.073 172.685L102.5 177ZM101.5 172L123.073 167.685L122.373 164.185L120.601 161.085L101.5 172ZM97.5 165L116.601 154.085L115.14 151.527L113.056 149.444L97.5 165ZM95 162.5L107.94 144.708L79.4437 178.056L95 162.5ZM100.5 166.5L87.5602 184.292L91.7604 187.347L96.8832 188.201L100.5 166.5ZM103.5 167L99.8832 188.701L100.136 188.743L100.389 188.779L103.5 167ZM110.5 168L107.389 189.779L111.358 190.346L115.272 189.476L110.5 168ZM115 167L119.772 188.476L121.514 188.089L123.171 187.426L115 167ZM120 165L128.171 185.426L134.846 182.756L138.656 176.66L120 165ZM122.5 161L141.156 172.66L142.325 170.79L143.099 168.725L122.5 161ZM124 157L144.599 164.725L145.696 161.801L145.935 158.687L124 157ZM124.5 150.5L146.435 152.187L146.5 151.345V150.5H124.5ZM124.5 141H146.5V112.823L119.164 119.657L124.5 141ZM95.0634 147.947L96.5634 154.447L139.437 144.553L137.937 138.053L95.0634 147.947ZM96 149.5V153.5H140V149.5H96ZM96.6569 148.164L95.6569 152.164L138.343 162.836L139.343 158.836L96.6569 148.164ZM101.444 141.944L98.9437 144.444L130.056 175.556L132.556 173.056L101.444 141.944ZM103.816 140.769L99.3159 143.269L120.684 181.731L125.184 179.231L103.816 140.769ZM113.617 140.799C112.528 140.618 110.81 140.384 108.941 140.307C108.074 140.27 106.427 140.231 104.492 140.46C103.53 140.574 101.886 140.821 99.9559 141.445C98.3232 141.973 94.5044 143.383 90.9437 146.944L122.056 178.056C118.596 181.517 114.93 182.847 113.493 183.311C111.758 183.872 110.352 184.074 109.658 184.156C108.261 184.321 107.276 184.275 107.109 184.268C106.64 184.249 106.472 184.215 106.383 184.201L113.617 140.799ZM90.9437 146.944C95.5106 142.377 100.62 141.249 102.33 140.929C104.5 140.522 106.227 140.549 107.004 140.579C108.617 140.64 109.769 140.882 109.959 140.921C110.541 141.041 110.711 141.116 110.214 140.961C109.396 140.705 108.223 140.284 107.398 139.966L91.6025 181.034C92.9432 181.549 95.0711 182.328 97.1109 182.964C98.043 183.255 99.5316 183.699 101.125 184.025C101.821 184.168 103.402 184.474 105.343 184.547C106.284 184.583 108.149 184.604 110.429 184.177C112.248 183.836 117.439 182.673 122.056 178.056L90.9437 146.944ZM113.817 143.796L110.317 140.796L81.6826 174.204L85.1826 177.204L113.817 143.796ZM104.171 137.074L101.671 136.074L85.3294 176.926L87.8294 177.926L104.171 137.074ZM81.2966 138.195L79.7966 139.195L104.203 175.805L105.703 174.805L81.2966 138.195ZM76.4437 141.944L74.9437 143.444L106.056 174.556L107.556 173.056L76.4437 141.944ZM68.5 159V162.5H112.5V159H68.5ZM68.5 162.5V170H112.5V162.5H68.5ZM68.5559 171.567L69.0559 178.567L112.944 175.433L112.444 168.433L68.5559 171.567ZM72.1352 188.319C72.242 188.497 72.3941 188.766 72.4545 188.881C72.502 188.971 72.3561 188.704 72.1426 188.211C72.0427 187.98 71.782 187.366 71.509 186.515C71.3696 186.081 71.1578 185.372 70.9672 184.473C70.7991 183.681 70.5 182.07 70.5 180H114.5C114.5 176.348 113.559 173.552 113.403 173.066C113.073 172.039 112.731 171.215 112.529 170.749C112.113 169.785 111.685 168.949 111.42 168.444C110.856 167.368 110.258 166.336 109.865 165.681L72.1352 188.319ZM70.5 180C70.5 184.514 71.9166 187.881 72.2065 188.588C72.7442 189.902 73.309 190.94 73.6765 191.579C74.4344 192.895 75.243 194.039 75.9468 194.944C76.6166 195.805 77.6594 197.054 79.0296 198.322C79.6827 198.927 80.9046 200.001 82.5921 201.058C83.5952 201.686 88.0577 204.5 94.5 204.5V160.5C100.817 160.5 105.124 163.252 105.949 163.769C107.459 164.714 108.481 165.628 108.924 166.037C109.872 166.915 110.446 167.632 110.678 167.931C110.944 168.273 111.347 168.824 111.808 169.624C112.027 170.005 112.471 170.805 112.924 171.914C113.13 172.416 114.5 175.611 114.5 180H70.5ZM94.5 204.5C93.8067 204.5 93.2521 204.466 92.9182 204.44C92.5619 204.413 92.2728 204.382 92.0773 204.358C91.698 204.313 91.4234 204.268 91.3124 204.249C91.0894 204.212 90.9954 204.19 91.0902 204.21C91.259 204.246 91.5171 204.306 91.6642 204.343L102.336 161.657C101.816 161.527 101.024 161.338 100.21 161.165C99.813 161.081 99.244 160.965 98.6188 160.86C98.4742 160.836 96.653 160.5 94.5 160.5V204.5ZM108.319 201.865L110.819 200.365L88.1811 162.635L85.6811 164.135L108.319 201.865ZM112.7 199.1L114.7 197.6L88.3 162.4L86.3 163.9L112.7 199.1ZM122.371 186.957L123.371 183.957L81.629 170.043L80.629 173.043L122.371 186.957ZM124.073 172.685L123.073 167.685L79.9272 176.315L80.9272 181.315L124.073 172.685ZM120.601 161.085L118.601 157.585L80.3987 179.415L82.3987 182.915L120.601 161.085ZM118.601 157.585L116.601 154.085L78.3987 175.915L80.3987 179.415L118.601 157.585ZM113.056 149.444L110.556 146.944L79.4437 178.056L81.9437 180.556L113.056 149.444ZM82.0602 180.292L87.5602 184.292L113.44 148.708L107.94 144.708L82.0602 180.292ZM96.8832 188.201L99.8832 188.701L107.117 145.299L104.117 144.799L96.8832 188.201ZM100.389 188.779L107.389 189.779L113.611 146.221L106.611 145.221L100.389 188.779ZM115.272 189.476L119.772 188.476L110.228 145.524L105.728 146.524L115.272 189.476ZM123.171 187.426L128.171 185.426L111.829 144.574L106.829 146.574L123.171 187.426ZM138.656 176.66L141.156 172.66L103.844 149.34L101.344 153.34L138.656 176.66ZM143.099 168.725L144.599 164.725L103.401 149.275L101.901 153.275L143.099 168.725ZM145.935 158.687L146.435 152.187L102.565 148.813L102.065 155.313L145.935 158.687ZM146.5 150.5V146.5H102.5V150.5H146.5ZM146.5 146.5V141H102.5V146.5H146.5ZM119.164 119.657L111.164 121.657L121.836 164.343L129.836 162.343L119.164 119.657Z" fill="#FF5733" mask="url(#path-10-inside-2_1_2)"/>
<mask id="path-12-inside-3_1_2" fill="white">
<path d="M57.5 99.5L64.5 96.5V102.5L62.5 103.5L59.5 105L57 108.5L55.5 112.5C55.1667 114.5 54.5 118.6 54.5 119C54.5 119.4 54.8333 121.5 55 122.5L57.5 124.5C58.5 125.167 60.6 126.5 61 126.5C61.4 126.5 61.1667 128.833 61 130L60 131.5L58 132L55 129L57 132L56.5 134L54.5 134.5L53 133.5L52 132H51.5V135L50 134V133.5C49.8333 133.167 49.4 132.4 49 132C48.6 131.6 48.5 130.5 48.5 130L48 133.5L47 135C46.5 134.667 45.4 133.9 45 133.5C44.5 133 45 131 45 130.5C45 130.1 45.3333 127.667 45.5 126.5L48.5 122.5V117L49.5 110.5L54.5 102.5L57.5 99.5Z"/>
</mask>
<path d="M64.5 96.5H81.5V70.7188L57.8034 80.8745L64.5 96.5ZM57.5 99.5L50.8034 83.8745L47.7942 85.1642L45.4792 87.4792L57.5 99.5ZM54.5 102.5L42.4792 90.4792L41.1102 91.8482L40.084 93.49L54.5 102.5ZM49.5 110.5L35.084 101.49L33.2297 104.457L32.6977 107.915L49.5 110.5ZM48.5 117L31.6977 114.415L31.5 115.7V117H48.5ZM48.5 122.5L62.1 132.7L65.5 128.167V122.5H48.5ZM45.5 126.5L31.9 116.3L29.2868 119.784L28.6709 124.096L45.5 126.5ZM45 133.5L57.0208 121.479L57.0208 121.479L45 133.5ZM47 135L37.5702 149.145L51.715 158.575L61.1449 144.43L47 135ZM48 133.5L62.1449 142.93L64.2838 139.721L64.8291 135.904L48 133.5ZM48.5 130L65.5 130L31.6708 127.596L48.5 130ZM49 132L36.9791 144.021L36.9791 144.021L49 132ZM50 133.5H67V129.487L65.2052 125.897L50 133.5ZM50 134H33V143.098L40.5701 148.145L50 134ZM51.5 135L42.0701 149.145L68.5 166.765V135H51.5ZM51.5 132V115H34.5V132H51.5ZM52 132L66.1449 122.57L61.0981 115H52V132ZM53 133.5L38.8551 142.93L40.7411 145.759L43.5701 147.645L53 133.5ZM54.5 134.5L45.0701 148.645L51.3274 152.816L58.6231 150.992L54.5 134.5ZM56.5 134L60.6231 150.492L70.5186 148.019L72.9924 138.123L56.5 134ZM57 132L73.4924 136.123L75.3164 128.827L71.1449 122.57L57 132ZM55 129L67.0208 116.979L40.8551 138.43L55 129ZM58 132L45.9792 144.021L52.7853 150.827L62.1231 148.492L58 132ZM60 131.5L64.1231 147.992L70.4992 146.398L74.1449 140.93L60 131.5ZM61 130L75.1449 139.43L77.2838 136.221L77.8291 132.404L61 130ZM57.5 124.5L46.8802 137.775L47.4563 138.236L48.0701 138.645L57.5 124.5ZM55 122.5L38.2313 125.295L39.3007 131.711L44.3802 135.775L55 122.5ZM55.5 112.5L39.5824 106.531L39.0027 108.077L38.7313 109.705L55.5 112.5ZM57 108.5L43.1665 98.619L41.8673 100.438L41.0824 102.531L57 108.5ZM59.5 105L51.8974 89.7947L48.1207 91.683L45.6665 95.119L59.5 105ZM62.5 103.5L70.1026 118.705L70.1027 118.705L62.5 103.5ZM64.5 102.5L72.1026 117.705L81.5 113.007V102.5H64.5ZM57.8034 80.8745L50.8034 83.8745L64.1966 115.125L71.1966 112.125L57.8034 80.8745ZM45.4792 87.4792L42.4792 90.4792L66.5208 114.521L69.5208 111.521L45.4792 87.4792ZM40.084 93.49L35.084 101.49L63.916 119.51L68.916 111.51L40.084 93.49ZM32.6977 107.915L31.6977 114.415L65.3023 119.585L66.3023 113.085L32.6977 107.915ZM31.5 117V122.5H65.5V117H31.5ZM34.9 112.3L31.9 116.3L59.1 136.7L62.1 132.7L34.9 112.3ZM28.6709 124.096C28.5807 124.727 28.4448 125.704 28.3283 126.604C28.271 127.046 28.2099 127.535 28.1601 127.98C28.1357 128.198 28.1061 128.476 28.0803 128.768C28.07 128.885 28 129.628 28 130.5H62C62 130.767 61.9934 130.982 61.9881 131.116C61.9826 131.258 61.9762 131.374 61.9713 131.453C61.9618 131.606 61.9525 131.714 61.949 131.754C61.9421 131.832 61.9398 131.845 61.9493 131.76C61.9672 131.6 61.9998 131.333 62.0466 130.971C62.1385 130.262 62.2527 129.439 62.3291 128.904L28.6709 124.096ZM28 130.5C28 129.883 28.0357 129.407 28.0539 129.191C28.0746 128.944 28.0963 128.761 28.1059 128.683C28.122 128.551 28.1345 128.474 28.1106 128.636C28.0866 128.799 27.975 129.527 27.8969 130.308C27.8286 130.992 27.6921 132.541 27.8548 134.385C27.9385 135.333 28.139 136.838 28.7137 138.578C29.2727 140.271 30.4502 142.992 32.9792 145.521L57.0208 121.479C59.4248 123.883 60.5085 126.432 60.9992 127.918C61.5056 129.451 61.663 130.714 61.7233 131.396C61.8391 132.709 61.7339 133.633 61.7281 133.692C61.7125 133.848 61.6946 133.951 61.7488 133.583C61.764 133.48 61.8116 133.16 61.8531 132.821C61.8759 132.635 62 131.673 62 130.5H28ZM32.9792 145.521C34.2331 146.775 35.6279 147.778 35.9285 147.998C36.5471 148.45 37.1526 148.867 37.5702 149.145L56.4298 120.855C56.4045 120.838 56.3348 120.791 56.2409 120.726C56.1474 120.661 56.0618 120.6 55.9965 120.552C55.9195 120.496 55.9317 120.502 56.0105 120.565C56.0527 120.599 56.1534 120.68 56.2934 120.801C56.3657 120.863 56.4624 120.949 56.5771 121.054C56.6897 121.157 56.8422 121.301 57.0208 121.479L32.9792 145.521ZM61.1449 144.43L62.1449 142.93L33.8551 124.07L32.8551 125.57L61.1449 144.43ZM64.8291 135.904L65.3291 132.404L31.6708 127.596L31.1709 131.096L64.8291 135.904ZM31.5 130C31.5 131.123 31.5922 132.627 31.9098 134.268C32.0717 135.105 32.3663 136.368 32.9286 137.801C33.4217 139.057 34.5611 141.603 36.9791 144.021L61.0209 119.979C63.2389 122.197 64.2158 124.456 64.5777 125.378C65.0088 126.476 65.2033 127.358 65.2902 127.807C65.4578 128.673 65.5 129.377 65.5 130L31.5 130ZM36.9791 144.021C36.3083 143.35 35.8713 142.784 35.676 142.522C35.4522 142.222 35.3004 141.989 35.2192 141.861C35.0784 141.638 34.9514 141.416 34.7948 141.103L65.2052 125.897C64.9603 125.407 63.5131 122.471 61.0209 119.979L36.9791 144.021ZM33 133.5V134H67V133.5H33ZM40.5701 148.145L42.0701 149.145L60.9299 120.855L59.4299 119.855L40.5701 148.145ZM68.5 135V132H34.5V135H68.5ZM51.5 149H52V115H51.5V149ZM37.8551 141.43L38.8551 142.93L67.1449 124.07L66.1449 122.57L37.8551 141.43ZM43.5701 147.645L45.0701 148.645L63.9299 120.355L62.4299 119.355L43.5701 147.645ZM58.6231 150.992L60.6231 150.492L52.3769 117.508L50.3769 118.008L58.6231 150.992ZM72.9924 138.123L73.4924 136.123L40.5076 127.877L40.0076 129.877L72.9924 138.123ZM71.1449 122.57L69.1449 119.57L40.8551 138.43L42.8551 141.43L71.1449 122.57ZM42.9792 141.021L45.9792 144.021L70.0208 119.979L67.0208 116.979L42.9792 141.021ZM62.1231 148.492L64.1231 147.992L55.8769 115.008L53.8769 115.508L62.1231 148.492ZM74.1449 140.93L75.1449 139.43L46.8551 120.57L45.8551 122.07L74.1449 140.93ZM77.8291 132.404C77.956 131.516 78.1379 130.016 78.1989 128.492C78.2232 127.885 78.2748 126.364 78.0414 124.624C77.949 123.935 77.643 121.748 76.4605 119.273C75.499 117.261 71.0706 109.5 61 109.5V143.5C51.0294 143.5 46.6812 135.812 45.7828 133.932C44.6635 131.589 44.4036 129.594 44.3429 129.142C44.2423 128.391 44.2267 127.833 44.2227 127.617C44.2178 127.356 44.224 127.185 44.2261 127.133C44.2287 127.067 44.2106 127.317 44.1709 127.596L77.8291 132.404ZM61 109.5C62.122 109.5 63.0437 109.613 63.67 109.714C64.3174 109.819 64.8542 109.945 65.2462 110.048C66.0069 110.249 66.5891 110.463 66.9068 110.585C67.5373 110.829 67.9691 111.046 68.0747 111.1C68.326 111.226 68.3863 111.271 68.1702 111.142C67.7953 110.919 67.2763 110.586 66.9299 110.355L48.0701 138.645C48.7237 139.081 49.7547 139.748 50.7798 140.358C51.2637 140.646 51.9865 141.065 52.7753 141.463C53.1497 141.652 53.819 141.978 54.6448 142.297C54.8018 142.358 57.4909 143.5 61 143.5V109.5ZM68.1198 111.225L65.6198 109.225L44.3802 135.775L46.8802 137.775L68.1198 111.225ZM71.7687 119.705C71.6963 119.271 71.5879 118.598 71.5023 118.023C71.4584 117.727 71.4324 117.538 71.4214 117.45C71.4154 117.403 71.4235 117.461 71.4358 117.589C71.4421 117.654 71.4547 117.79 71.4669 117.974C71.4731 118.069 71.4808 118.199 71.4871 118.356C71.4932 118.507 71.5 118.729 71.5 119H37.5C37.5 120.37 37.6867 121.69 37.688 121.7C37.7447 122.15 37.8125 122.623 37.8727 123.027C37.9955 123.852 38.1371 124.729 38.2313 125.295L71.7687 119.705ZM71.5 119C71.5 119.507 71.4763 119.898 71.4661 120.055C71.4534 120.25 71.4398 120.401 71.432 120.484C71.4167 120.646 71.4039 120.749 71.4034 120.753C71.4016 120.768 71.41 120.7 71.437 120.511C71.4886 120.152 71.5686 119.627 71.6687 118.991C71.8663 117.734 72.1073 116.263 72.2687 115.295L38.7313 109.705C38.5594 110.737 38.3004 112.316 38.0813 113.709C37.9731 114.398 37.8655 115.098 37.7817 115.682C37.741 115.966 37.6948 116.299 37.6552 116.623C37.6358 116.781 37.6083 117.015 37.5831 117.282C37.573 117.389 37.5 118.113 37.5 119H71.5ZM71.4176 118.469L72.9176 114.469L41.0824 102.531L39.5824 106.531L71.4176 118.469ZM70.8335 118.381L73.3335 114.881L45.6665 95.119L43.1665 98.619L70.8335 118.381ZM67.1026 120.205L70.1026 118.705L54.8974 88.2947L51.8974 89.7947L67.1026 120.205ZM70.1027 118.705L72.1026 117.705L56.8973 87.2947L54.8973 88.2947L70.1027 118.705ZM81.5 102.5V96.5H47.5V102.5H81.5Z" fill="#FF5733" mask="url(#path-12-inside-3_1_2)"/>
<mask id="path-14-inside-4_1_2" fill="white">
<path d="M150.5 147.5L140 139.5L150 137.5L158 146.5L168 160.5L173 166.5L176 171.5L175 167V157L176 154L178 151.5L181 151L184 153L186 156.5L185.5 165L184 172.5L181 181.5H178L175 177L169 168.5L156.5 154L150.5 147.5Z"/>
</mask>
<path d="M140 139.5L134.705 113.024L76.0867 124.748L123.637 160.977L140 139.5ZM150.5 147.5L170.34 129.186L168.74 127.453L166.863 126.023L150.5 147.5ZM156.5 154L176.95 136.371L176.651 136.023L176.34 135.686L156.5 154ZM169 168.5L191.058 152.93L190.304 151.861L189.45 150.871L169 168.5ZM175 177L197.465 162.023L197.266 161.724L197.058 161.43L175 177ZM178 181.5L155.535 196.477L163.55 208.5H178V181.5ZM181 181.5V208.5H200.46L206.614 190.038L181 181.5ZM184 172.5L209.614 181.038L210.146 179.443L210.476 177.795L184 172.5ZM185.5 165L211.976 170.295L212.343 168.457L212.453 166.585L185.5 165ZM186 156.5L212.953 158.085L213.425 150.073L209.443 143.104L186 156.5ZM184 153L207.443 139.604L204.28 134.07L198.977 130.535L184 153ZM181 151L195.977 128.535L187.093 122.612L176.561 124.367L181 151ZM178 151.5L173.561 124.867L163.37 126.566L156.917 134.633L178 151.5ZM176 154L154.917 137.133L151.908 140.893L150.386 145.462L176 154ZM175 157L149.386 148.462L148 152.619V157H175ZM175 167H148V169.964L148.643 172.857L175 167ZM176 171.5L152.848 185.391L202.357 165.643L176 171.5ZM173 166.5L196.152 152.609L195.078 150.819L193.742 149.215L173 166.5ZM168 160.5L146.029 176.193L146.614 177.012L147.258 177.785L168 160.5ZM158 146.5L179.971 130.807L179.135 129.637L178.18 128.562L158 146.5ZM150 137.5L170.18 119.562L159.891 107.987L144.705 111.024L150 137.5ZM123.637 160.977L134.137 168.977L166.863 126.023L156.363 118.023L123.637 160.977ZM130.66 165.814L136.66 172.314L176.34 135.686L170.34 129.186L130.66 165.814ZM136.05 171.629L148.55 186.129L189.45 150.871L176.95 136.371L136.05 171.629ZM146.942 184.07L152.942 192.57L197.058 161.43L191.058 152.93L146.942 184.07ZM152.535 191.977L155.535 196.477L200.465 166.523L197.465 162.023L152.535 191.977ZM178 208.5H181V154.5H178V208.5ZM206.614 190.038L209.614 181.038L158.386 163.962L155.386 172.962L206.614 190.038ZM210.476 177.795L211.976 170.295L159.024 159.705L157.524 167.205L210.476 177.795ZM212.453 166.585L212.953 158.085L159.047 154.915L158.547 163.415L212.453 166.585ZM209.443 143.104L207.443 139.604L160.557 166.396L162.557 169.896L209.443 143.104ZM198.977 130.535L195.977 128.535L166.023 173.465L169.023 175.465L198.977 130.535ZM176.561 124.367L173.561 124.867L182.439 178.133L185.439 177.633L176.561 124.367ZM156.917 134.633L154.917 137.133L197.083 170.867L199.083 168.367L156.917 134.633ZM150.386 145.462L149.386 148.462L200.614 165.538L201.614 162.538L150.386 145.462ZM148 157V167H202V157H148ZM148.643 172.857L149.643 177.357L202.357 165.643L201.357 161.143L148.643 172.857ZM199.152 157.609L196.152 152.609L149.848 180.391L152.848 185.391L199.152 157.609ZM193.742 149.215L188.742 143.215L147.258 177.785L152.258 183.785L193.742 149.215ZM189.971 144.807L179.971 130.807L136.029 162.193L146.029 176.193L189.971 144.807ZM178.18 128.562L170.18 119.562L129.82 155.438L137.82 164.438L178.18 128.562ZM144.705 111.024L134.705 113.024L145.295 165.976L155.295 163.976L144.705 111.024Z" fill="#FF5733" mask="url(#path-14-inside-4_1_2)"/>
<path d="M194.69 101.595L194.564 102.036L193.219 100.019L193.976 100.524L194.69 101.595Z" stroke="#FF5733" stroke-width="7"/>
<path d="M43.5 66.5L72 20.5M55 64.5L69 42.5M43.5 47.5C44.7 46.3 55 31.3333 60 24" stroke="black"/>
<path d="M127 105.5L128.5 102H131L131.5 104L132.5 105.5L131 107.5" stroke="black"/>
<path d="M96.5 70.5L102.5 49.5L106.5 47.5L111 42V36L121.5 42L127.5 30L137 29L131.5 42L134.5 49.5L136 55L138 62" stroke="#6D0F87" stroke-width="5"/>
<path d="M124 56.5L123 49.5L118 40.5L112.5 34L105.5 26.5L98 23H94H90L87.5 26.5L83.5 32.5L80.5 39.5L80 50.5L80.5 55L81.5 62" stroke="#6D0F87" stroke-width="5"/>
<path d="M128.5 81L133 78H135L139 80M110 85L111.5 83L113 81L114.5 80H116.5L119 81" stroke="black"/>
<ellipse cx="117.98" cy="96.9395" rx="5.72237" ry="8.71331" transform="rotate(-11.0258 117.98 96.9395)" fill="#0E0E0E"/>
<ellipse cx="117.98" cy="96.9395" rx="5.72237" ry="8.71331" transform="rotate(-11.0258 117.98 96.9395)" fill="#0E0E0E"/>
<ellipse cx="117.98" cy="96.9395" rx="5.72237" ry="8.71331" transform="rotate(-11.0258 117.98 96.9395)" fill="#0E0E0E"/>
<ellipse cx="118" cy="97" rx="5.53203" ry="8.20954" transform="rotate(-11.0258 118 97)" fill="#0E0E0E"/>
<ellipse cx="118" cy="97" rx="5.53203" ry="8.20954" transform="rotate(-11.0258 118 97)" fill="#0E0E0E"/>
<ellipse cx="118" cy="97" rx="5.53203" ry="8.20954" transform="rotate(-11.0258 118 97)" fill="white"/>
<ellipse cx="118.5" cy="97.6312" rx="2.95727" ry="3.12323" transform="rotate(-11.0258 118.5 97.6312)" fill="#0E0E0E"/>
<ellipse cx="118.5" cy="97.6312" rx="2.95727" ry="3.12323" transform="rotate(-11.0258 118.5 97.6312)" fill="#0E0E0E"/>
<ellipse cx="118.5" cy="97.6312" rx="2.95727" ry="3.12323" transform="rotate(-11.0258 118.5 97.6312)" fill="#020202"/>
<ellipse cx="136.283" cy="93.6465" rx="5.72237" ry="8.71331" transform="rotate(-11.0258 136.283 93.6465)" fill="#0E0E0E"/>
<ellipse cx="136.283" cy="93.6465" rx="5.72237" ry="8.71331" transform="rotate(-11.0258 136.283 93.6465)" fill="#0E0E0E"/>
<ellipse cx="136.283" cy="93.6465" rx="5.72237" ry="8.71331" transform="rotate(-11.0258 136.283 93.6465)" fill="#0E0E0E"/>
<ellipse cx="136.303" cy="93.707" rx="5.53203" ry="8.20954" transform="rotate(-11.0258 136.303 93.707)" fill="#0E0E0E"/>
<ellipse cx="136.303" cy="93.707" rx="5.53203" ry="8.20954" transform="rotate(-11.0258 136.303 93.707)" fill="#0E0E0E"/>
<ellipse cx="136.303" cy="93.707" rx="5.53203" ry="8.20954" transform="rotate(-11.0258 136.303 93.707)" fill="white"/>
<ellipse cx="137" cy="94.5654" rx="2.47901" ry="2.96338" transform="rotate(-11.0258 137 94.5654)" fill="#0E0E0E"/>
<ellipse cx="137" cy="94.5654" rx="2.47901" ry="2.96338" transform="rotate(-11.0258 137 94.5654)" fill="#0E0E0E"/>
<ellipse cx="137" cy="94.5654" rx="2.47901" ry="2.96338" transform="rotate(-11.0258 137 94.5654)" fill="#020202"/>
<mask id="path-28-inside-5_1_2" fill="white">
<path d="M145 180.5L67.5 187L74 192.5L141 187L145 180.5Z"/>
</mask>
<path d="M67.5 187L66.915 180.024L50.0873 181.436L62.9784 192.344L67.5 187ZM145 180.5L150.962 184.169L158.225 172.366L144.415 173.524L145 180.5ZM141 187L141.573 193.977L145.104 193.687L146.962 190.669L141 187ZM74 192.5L69.4784 197.844L71.688 199.713L74.5727 199.477L74 192.5ZM68.085 193.976L145.585 187.476L144.415 173.524L66.915 180.024L68.085 193.976ZM139.038 176.831L135.038 183.331L146.962 190.669L150.962 184.169L139.038 176.831ZM140.427 180.023L73.4273 185.523L74.5727 199.477L141.573 193.977L140.427 180.023ZM78.5216 187.156L72.0216 181.656L62.9784 192.344L69.4784 197.844L78.5216 187.156Z" fill="#6D0F87" mask="url(#path-28-inside-5_1_2)"/>
<ellipse cx="109.5" cy="187.5" rx="4.5" ry="3.5" fill="#1E1E1E"/>
<path d="M5.64 202H21.24V206.52H7.48L6.76 207.32V213.6H16V218.12H6.76V223.72L7.92 225.48H21.24V230H5.52L1.92 224.64V205.8L5.64 202ZM29.5044 207.88H42.8644L45.6644 212V230H40.8244V228.68L38.6244 230H29.9044L26.3044 224.64V222.52L32.7444 215.8H40.8244V212.32H29.5044V207.88ZM31.3044 223.76L32.0644 225.48H40.6644V220.36H34.5444L31.3044 223.68V223.76ZM54.4088 207.68H66.0888L68.8088 211.64L65.6888 214.88L63.7688 212.08H56.4088L55.6888 212.72V214.56L56.8088 216.2H66.1688L69.2888 220.84V226.48L66.1288 230H52.8088L50.6488 226.64L53.7688 223.44L55.1688 225.48H64.0488L64.4488 225.04V221.8L63.6888 220.68H54.3288L50.8888 215.52V211.12L54.4088 207.68ZM88.7531 207.96H93.5931V231.44L86.6331 238.68H74.3131V234.16H84.6331L88.7531 230H78.6731L74.3131 223.56V207.96H79.1531V222.68L81.1131 225.52H88.7531V207.96ZM121.482 207.96H126.322V209.28L128.482 207.96H130.802L132.482 210.44L136.562 207.96H138.802L142.402 213.28V230H137.562V214.16L136.442 212.44H135.122L134.402 213.28V218.92H129.562V214.16L128.402 212.44H127.042L126.322 213.28V230H121.482V207.96ZM149.426 207.88H162.786L165.586 212V230H160.746V228.68L158.546 230H149.826L146.226 224.64V222.52L152.666 215.8H160.746V212.32H149.426V207.88ZM151.226 223.76L151.986 225.48H160.586V220.36H154.466L151.226 223.68V223.76ZM169.891 207.96H172.651L176.131 210L178.091 207.96H187.171L189.891 212.04L186.171 214.56L184.811 212.44H180.011L178.731 213.8V225.52H184.411V230H169.891V225.52H173.931V214.16L172.771 212.44H169.891V207.96ZM194.235 200.08H199.075V214.24L206.355 206.68H212.715L205.675 213.8L213.555 225.48V230H208.715V226.32L202.435 217.16L199.075 220.64V230H194.235V200.08ZM221.979 207.88H233.779L237.419 213.32L230.339 220.6H223.019V223.48L224.299 225.36H231.979L234.179 223.08L236.979 226.6L233.699 230H221.899L218.419 224.8V211.56L221.979 207.88ZM223.019 213.48V216.56H228.579L231.539 213.44L230.899 212.52H223.939L223.019 213.48ZM246.084 200.08H250.924V207.92H257.404V212.44H250.924V223.76L252.044 225.48H255.404L258.244 222.64L260.804 226.36L257.404 230H249.684L246.084 224.72V212.44H242.884V207.92H246.084V200.08Z" fill="#6D0F87"/>
<path d="M143.203 113.652C143.092 113.789 142.992 113.909 142.909 114.009C142.75 114.09 142.548 114.192 142.309 114.309C141.655 114.628 140.733 115.059 139.663 115.505C137.47 116.419 134.872 117.3 132.751 117.512C127.926 117.995 123.499 117.993 118.539 115.726C118.118 115.534 117.41 115.071 116.415 114.255C115.454 113.468 114.345 112.452 113.137 111.27C111.348 109.52 109.395 107.457 107.462 105.335C110.097 106.995 112.753 108.62 115.102 109.966C116.604 110.826 118.006 111.588 119.213 112.176C120.364 112.737 121.519 113.233 122.461 113.441C123.132 113.589 123.852 113.766 124.595 113.947C126.391 114.387 128.316 114.859 129.976 115.037C132.423 115.3 135.357 115.077 137.421 112.6C137.628 112.351 137.78 112.22 137.874 112.152C137.96 112.089 138.003 112.076 138.012 112.073L138.013 112.073C138.033 112.066 138.134 112.034 138.589 112.1C138.695 112.116 138.821 112.139 138.964 112.164C139.961 112.344 141.813 112.678 143.938 111.817C144.363 111.645 144.753 111.432 145.112 111.184C144.962 111.391 144.812 111.594 144.663 111.792C144.098 112.543 143.58 113.192 143.203 113.652Z" stroke="white" stroke-width="5"/>
<defs>
<filter id="filter0_f_1_2" x="9" y="4" width="139.5" height="188" filterUnits="userSpaceOnUse" color-interpolation-filters="sRGB">
<feFlood flood-opacity="0" result="BackgroundImageFix"/>
<feBlend mode="normal" in="SourceGraphic" in2="BackgroundImageFix" result="shape"/>
<feGaussianBlur stdDeviation="2" result="effect1_foregroundBlur_1_2"/>
</filter>
<filter id="filter1_d_1_2" x="71" y="52" width="117.5" height="105" filterUnits="userSpaceOnUse" color-interpolation-filters="sRGB">
<feFlood flood-opacity="0" result="BackgroundImageFix"/>
<feColorMatrix in="SourceAlpha" type="matrix" values="0 0 0 0 0 0 0 0 0 0 0 0 0 0 0 0 0 0 127 0" result="hardAlpha"/>
<feOffset dy="4"/>
<feGaussianBlur stdDeviation="2"/>
<feComposite in2="hardAlpha" operator="out"/>
<feColorMatrix type="matrix" values="0 0 0 0 0 0 0 0 0 0 0 0 0 0 0 0 0 0 0.25 0"/>
<feBlend mode="normal" in2="BackgroundImageFix" result="effect1_dropShadow_1_2"/>
<feBlend mode="normal" in="SourceGraphic" in2="effect1_dropShadow_1_2" result="shape"/>
</filter>
</defs>
</svg>
