<svg width="400" height="400" viewBox="0 0 400 400" xmlns="http://www.w3.org/2000/svg">
    <style>
        @keyframes float {
            0%, 100% { transform: translateY(0); }
            50% { transform: translateY(-5px); } /* Mouvement de flottement */
        }
        @keyframes waveArm {
            0%, 100% { transform: rotate(0deg); }
            50% { transform: rotate(10deg); } /* Mouvement des bras */
        }
        @keyframes waveLeg {
            0%, 100% { transform: rotate(0deg); }
            50% { transform: rotate(-5deg); } /* Mouvement des jambes */
        }
        @keyframes lookAround {
            0%, 100% { transform: translate(0, 0); }
            25% { transform: translate(-2px, -1px); } /* Regarde en haut à gauche */
            50% { transform: translate(2px, 1px); } /* Regarde en bas à droite */
            75% { transform: translate(2px, -1px); } /* Regarde en haut à droite */
        }
    </style>
    
    <!-- Fond -->
    <rect width="100%" height="100%" fill="white"/>

    <!-- Téléphone en perspective -->
    <polygon points="140,110 260,90 265,270 145,290" stroke="#6A0DAD" stroke-width="4" fill="none"/>

    <!-- Sac principal sortant du téléphone -->
    <g transform="translate(0, 0)" style="animation: float 3s ease-in-out infinite;">
        <polygon points="160,160 240,140 230,220 170,230" fill="#FFB300" stroke="#6A0DAD" stroke-width="3"/>
        <path d="M170,150 Q190,120 210,150" fill="none" stroke="#6A0DAD" stroke-width="3"/>

        <!-- Visage du sac principal avec animation des yeux -->
        <g>
            <g style="animation: lookAround 4s ease-in-out infinite;">
                <ellipse cx="185" cy="175" rx="4" ry="6" fill="black"/>
            </g>
            <g style="animation: lookAround 4s ease-in-out infinite;">
                <ellipse cx="205" cy="175" rx="4" ry="6" fill="black"/>
            </g>
        </g>
        <path d="M185,185 Q195,195 205,185" stroke="black" stroke-width="2" fill="none"/>

        <!-- Bras et jambes du sac principal -->
        <g style="transform-origin: 160px 190px; animation: waveArm 2s ease-in-out infinite;">
            <path d="M160,190 Q140,170 130,180" stroke="#6A0DAD" stroke-width="3" fill="none"/>
        </g>
        <g style="transform-origin: 240px 190px; animation: waveArm 2s ease-in-out infinite;">
            <path d="M240,190 Q260,170 270,180" stroke="#6A0DAD" stroke-width="3" fill="none"/>
        </g>
        <g style="transform-origin: 170px 230px; animation: waveLeg 2s ease-in-out infinite;">
            <path d="M170,230 Q160,260 150,270" stroke="#6A0DAD" stroke-width="3" fill="none"/>
        </g>
        <g style="transform-origin: 230px 220px; animation: waveLeg 2s ease-in-out infinite;">
            <path d="M230,220 Q240,250 250,270" stroke="#6A0DAD" stroke-width="3" fill="none"/>
        </g>
    </g>

    <!-- Sac supplémentaire tenu en main -->
    <polygon points="220,190 250,180 245,220 215,230" fill="#6A0DAD" stroke="#6A0DAD" stroke-width="3"/>
    <path d="M220,190 Q225,170 235,170 Q245,170 250,190" stroke="#6A0DAD" stroke-width="2" fill="none"/>

    <!-- Texte centré -->
    <text x="200" y="340" font-family="Arial" font-size="24" font-weight="bold" fill="#6A0DAD" text-anchor="middle">Easy Market</text>
    <text x="200" y="370" font-family="Arial" font-size="18" font-weight="bold" fill="#FFB300" text-anchor="middle">Make yourself happy</text>
</svg>