<svg width="264" height="264" viewBox="0 0 264 264" fill="none" xmlns="http://www.w3.org/2000/svg">
<g filter="url(#filter0_f_83_3)">
<path d="M72.2456 33.9986L117.279 163.174L82.2437 166.749L39.6362 30.6418L72.2456 33.9986Z" stroke="#DCCDCD" stroke-width="40"/>
</g>
<mask id="path-2-inside-1_83_3" fill="white">
<path d="M75.2 63L88 149L64 146.068V63H75.2Z"/>
</mask>
<path d="M88 149L84.8473 174.808L118.744 178.949L113.717 145.172L88 149ZM75.2 63L100.917 59.1724L97.6166 37H75.2V63ZM64 63V37H38V63H64ZM64 146.068H38V169.085L60.8473 171.876L64 146.068ZM113.717 145.172L100.917 59.1724L49.4833 66.8276L62.2833 152.828L113.717 145.172ZM75.2 37H64V89H75.2V37ZM38 63V146.068H90V63H38ZM60.8473 171.876L84.8473 174.808L91.1527 123.192L67.1527 120.26L60.8473 171.876Z" fill="#FF5B37" mask="url(#path-2-inside-1_83_3)"/>
<path d="M80.5938 194.967L69.5498 193.268L64.0615 186.996L9.07305 13.1136L9.78622 7.05165L13.2635 4.15394L86.9172 11.8563L90.1946 14.4782L93.2806 21.9727L106.732 57.3463L147.804 180.066L145.765 186.862L140.646 188.568L80.5938 194.967Z" stroke="#6D0F87" stroke-width="8"/>
<path d="M177.218 139.043L213.665 137.439L214.091 145.616L177.279 144.912L177.218 139.043Z" stroke="#6D0F87" stroke-width="44"/>
<path d="M215.5 118.5L207.5 104.5L198.5 100.5L188.5 101.5L182.5 106L180.5 118.5" stroke="#6D0F87" stroke-width="4"/>
<g filter="url(#filter1_d_83_3)">
<path d="M153.487 114.613L106.621 122.026L101.409 82.8284L141.276 77.7544L153.487 114.613Z" stroke="#FF5733" stroke-width="47" shape-rendering="crispEdges"/>
</g>
<path d="M162.5 164L167 174L181.5 171.5L194 170.5L212 166.5L220 163.5" stroke="#6D0F87" stroke-width="3"/>
<path d="M234 164.5L244 163L247 160L245 141.5L240.5 120.5L238 107L201.5 114L183.5 120C183.5 120 191.5 130 186 127.5" stroke="#6D0F87" stroke-width="3"/>
<mask id="path-10-inside-2_83_3" fill="white">
<path d="M118 149.5L116.5 143L124.5 141V146.5V150.5L124 157L122.5 161L120 165L115 167L110.5 168L103.5 167L100.5 166.5L95 162.5L97.5 165L99.5 168.5L101.5 172L102.5 177L101.5 180L99.5 181.5L97 183C96.3333 182.833 94.9 182.5 94.5 182.5C94 182.5 92.5 180.5 92.5 180C92.5 179.6 91.5 177.833 91 177L90.5 170V162.5V159L92 157.5L93.5 156.5L96 157.5L99.5 160.5C101.667 161.333 106.1 162.9 106.5 162.5C106.9 162.1 109 162.333 110 162.5L114.5 160L117 157.5L118 153.5V149.5Z"/>
</mask>
<path d="M116.5 143L111.164 121.657L90.2056 126.897L95.0634 147.947L116.5 143ZM118 149.5H140V146.994L139.437 144.553L118 149.5ZM118 153.5L139.343 158.836L140 156.208V153.5H118ZM117 157.5L132.556 173.056L136.865 168.747L138.343 162.836L117 157.5ZM114.5 160L125.184 179.231L127.878 177.735L130.056 175.556L114.5 160ZM110 162.5L106.383 184.201L113.965 185.464L120.684 181.731L110 162.5ZM99.5 160.5L85.1826 177.204L88.0624 179.672L91.6025 181.034L99.5 160.5ZM96 157.5L110.317 140.796L107.552 138.426L104.171 137.074L96 157.5ZM93.5 156.5L101.671 136.074L90.9256 131.776L81.2966 138.195L93.5 156.5ZM92 157.5L79.7966 139.195L77.984 140.403L76.4437 141.944L92 157.5ZM90.5 159L74.9437 143.444L68.5 149.887V159H90.5ZM90.5 170H68.5V170.785L68.5559 171.567L90.5 170ZM91 177L69.0559 178.567L69.4305 183.811L72.1352 188.319L91 177ZM97 183L91.6642 204.343L100.505 206.553L108.319 201.865L97 183ZM99.5 181.5L110.819 200.365L111.792 199.781L112.7 199.1L99.5 181.5ZM101.5 180L114.7 197.6L120.198 193.477L122.371 186.957L101.5 180ZM102.5 177L123.371 183.957L125.219 178.414L124.073 172.685L102.5 177ZM101.5 172L123.073 167.685L122.373 164.185L120.601 161.085L101.5 172ZM97.5 165L116.601 154.085L115.14 151.527L113.056 149.444L97.5 165ZM95 162.5L107.94 144.708L79.4437 178.056L95 162.5ZM100.5 166.5L87.5602 184.292L91.7604 187.347L96.8832 188.201L100.5 166.5ZM103.5 167L99.8832 188.701L100.136 188.743L100.389 188.779L103.5 167ZM110.5 168L107.389 189.779L111.358 190.346L115.272 189.476L110.5 168ZM115 167L119.772 188.476L121.514 188.089L123.171 187.426L115 167ZM120 165L128.171 185.426L134.846 182.756L138.656 176.66L120 165ZM122.5 161L141.156 172.66L142.325 170.79L143.099 168.725L122.5 161ZM124 157L144.599 164.725L145.696 161.801L145.935 158.687L124 157ZM124.5 150.5L146.435 152.187L146.5 151.345V150.5H124.5ZM124.5 141H146.5V112.823L119.164 119.657L124.5 141ZM95.0634 147.947L96.5634 154.447L139.437 144.553L137.937 138.053L95.0634 147.947ZM96 149.5V153.5H140V149.5H96ZM96.6569 148.164L95.6569 152.164L138.343 162.836L139.343 158.836L96.6569 148.164ZM101.444 141.944L98.9437 144.444L130.056 175.556L132.556 173.056L101.444 141.944ZM103.816 140.769L99.3159 143.269L120.684 181.731L125.184 179.231L103.816 140.769ZM113.617 140.799C112.528 140.618 110.81 140.384 108.941 140.307C108.074 140.27 106.427 140.231 104.492 140.46C103.53 140.574 101.886 140.821 99.9559 141.445C98.3232 141.973 94.5044 143.383 90.9437 146.944L122.056 178.056C118.596 181.517 114.93 182.847 113.493 183.311C111.758 183.872 110.352 184.074 109.658 184.156C108.261 184.321 107.276 184.275 107.109 184.268C106.64 184.249 106.472 184.215 106.383 184.201L113.617 140.799ZM90.9437 146.944C95.5106 142.377 100.62 141.249 102.33 140.929C104.5 140.522 106.227 140.549 107.004 140.579C108.617 140.64 109.769 140.882 109.959 140.921C110.541 141.041 110.711 141.116 110.214 140.961C109.396 140.705 108.223 140.284 107.398 139.966L91.6025 181.034C92.9432 181.549 95.0711 182.328 97.1109 182.964C98.043 183.255 99.5316 183.699 101.125 184.025C101.821 184.168 103.402 184.474 105.343 184.547C106.284 184.583 108.149 184.604 110.429 184.177C112.248 183.836 117.439 182.673 122.056 178.056L90.9437 146.944ZM113.817 143.796L110.317 140.796L81.6826 174.204L85.1826 177.204L113.817 143.796ZM104.171 137.074L101.671 136.074L85.3294 176.926L87.8294 177.926L104.171 137.074ZM81.2966 138.195L79.7966 139.195L104.203 175.805L105.703 174.805L81.2966 138.195ZM76.4437 141.944L74.9437 143.444L106.056 174.556L107.556 173.056L76.4437 141.944ZM68.5 159V162.5H112.5V159H68.5ZM68.5 162.5V170H112.5V162.5H68.5ZM68.5559 171.567L69.0559 178.567L112.944 175.433L112.444 168.433L68.5559 171.567ZM72.1352 188.319C72.242 188.497 72.3941 188.766 72.4545 188.881C72.502 188.971 72.3561 188.704 72.1426 188.211C72.0427 187.98 71.782 187.366 71.509 186.515C71.3696 186.081 71.1578 185.372 70.9672 184.473C70.7991 183.681 70.5 182.07 70.5 180H114.5C114.5 176.348 113.559 173.552 113.403 173.066C113.073 172.039 112.731 171.215 112.529 170.749C112.113 169.785 111.685 168.949 111.42 168.444C110.856 167.368 110.258 166.336 109.865 165.681L72.1352 188.319ZM70.5 180C70.5 184.514 71.9166 187.881 72.2065 188.588C72.7442 189.902 73.309 190.94 73.6765 191.579C74.4344 192.895 75.243 194.039 75.9468 194.944C76.6166 195.805 77.6594 197.054 79.0296 198.322C79.6827 198.927 80.9046 200.001 82.5921 201.058C83.5952 201.686 88.0577 204.5 94.5 204.5V160.5C100.817 160.5 105.124 163.252 105.949 163.769C107.459 164.714 108.481 165.628 108.924 166.037C109.872 166.915 110.446 167.632 110.678 167.931C110.944 168.273 111.347 168.824 111.808 169.624C112.027 170.005 112.471 170.805 112.924 171.914C113.13 172.416 114.5 175.611 114.5 180H70.5ZM94.5 204.5C93.8067 204.5 93.2521 204.466 92.9182 204.44C92.5619 204.413 92.2728 204.382 92.0773 204.358C91.698 204.313 91.4234 204.268 91.3124 204.249C91.0894 204.212 90.9954 204.19 91.0902 204.21C91.259 204.246 91.5171 204.306 91.6642 204.343L102.336 161.657C101.816 161.527 101.024 161.338 100.21 161.165C99.813 161.081 99.244 160.965 98.6188 160.86C98.4742 160.836 96.653 160.5 94.5 160.5V204.5ZM108.319 201.865L110.819 200.365L88.1811 162.635L85.6811 164.135L108.319 201.865ZM112.7 199.1L114.7 197.6L88.3 162.4L86.3 163.9L112.7 199.1ZM122.371 186.957L123.371 183.957L81.629 170.043L80.629 173.043L122.371 186.957ZM124.073 172.685L123.073 167.685L79.9272 176.315L80.9272 181.315L124.073 172.685ZM120.601 161.085L118.601 157.585L80.3987 179.415L82.3987 182.915L120.601 161.085ZM118.601 157.585L116.601 154.085L78.3987 175.915L80.3987 179.415L118.601 157.585ZM113.056 149.444L110.556 146.944L79.4437 178.056L81.9437 180.556L113.056 149.444ZM82.0602 180.292L87.5602 184.292L113.44 148.708L107.94 144.708L82.0602 180.292ZM96.8832 188.201L99.8832 188.701L107.117 145.299L104.117 144.799L96.8832 188.201ZM100.389 188.779L107.389 189.779L113.611 146.221L106.611 145.221L100.389 188.779ZM115.272 189.476L119.772 188.476L110.228 145.524L105.728 146.524L115.272 189.476ZM123.171 187.426L128.171 185.426L111.829 144.574L106.829 146.574L123.171 187.426ZM138.656 176.66L141.156 172.66L103.844 149.34L101.344 153.34L138.656 176.66ZM143.099 168.725L144.599 164.725L103.401 149.275L101.901 153.275L143.099 168.725ZM145.935 158.687L146.435 152.187L102.565 148.813L102.065 155.313L145.935 158.687ZM146.5 150.5V146.5H102.5V150.5H146.5ZM146.5 146.5V141H102.5V146.5H146.5ZM119.164 119.657L111.164 121.657L121.836 164.343L129.836 162.343L119.164 119.657Z" fill="#FF5733" mask="url(#path-10-inside-2_83_3)"/>
<mask id="path-12-inside-3_83_3" fill="white">
<path d="M57.5001 99.5L64.5001 96.5V102.5L62.5001 103.5L59.5001 105L57.0001 108.5L55.5001 112.5C55.1667 114.5 54.5001 118.6 54.5001 119C54.5001 119.4 54.8334 121.5 55.0001 122.5L57.5001 124.5C58.5001 125.167 60.6001 126.5 61.0001 126.5C61.4001 126.5 61.1667 128.833 61.0001 130L60.0001 131.5L58.0001 132L55.0001 129L57.0001 132L56.5001 134L54.5001 134.5L53.0001 133.5L52.0001 132H51.5001V135L50.0001 134V133.5C49.8334 133.167 49.4001 132.4 49.0001 132C48.6001 131.6 48.5001 130.5 48.5001 130L48.0001 133.5L47.0001 135C46.5001 134.667 45.4001 133.9 45.0001 133.5C44.5001 133 45.0001 131 45.0001 130.5C45.0001 130.1 45.3334 127.667 45.5001 126.5L48.5001 122.5V117L49.5001 110.5L54.5001 102.5L57.5001 99.5Z"/>
</mask>
<path d="M64.5001 96.5H81.5001V70.7188L57.8034 80.8745L64.5001 96.5ZM57.5001 99.5L50.8034 83.8745L47.7942 85.1642L45.4792 87.4792L57.5001 99.5ZM54.5001 102.5L42.4792 90.4792L41.1102 91.8482L40.0841 93.49L54.5001 102.5ZM49.5001 110.5L35.0841 101.49L33.2297 104.457L32.6977 107.915L49.5001 110.5ZM48.5001 117L31.6977 114.415L31.5001 115.7V117H48.5001ZM48.5001 122.5L62.1001 132.7L65.5001 128.167V122.5H48.5001ZM45.5001 126.5L31.9001 116.3L29.2869 119.784L28.6709 124.096L45.5001 126.5ZM45.0001 133.5L57.0209 121.479L57.0209 121.479L45.0001 133.5ZM47.0001 135L37.5702 149.145L51.715 158.575L61.1449 144.43L47.0001 135ZM48.0001 133.5L62.1449 142.93L64.2839 139.721L64.8292 135.904L48.0001 133.5ZM48.5001 130L65.5001 130L31.6709 127.596L48.5001 130ZM49.0001 132L36.9791 144.021L36.9791 144.021L49.0001 132ZM50.0001 133.5H67.0001V129.487L65.2053 125.897L50.0001 133.5ZM50.0001 134H33.0001V143.098L40.5702 148.145L50.0001 134ZM51.5001 135L42.0702 149.145L68.5001 166.765V135H51.5001ZM51.5001 132V115H34.5001V132H51.5001ZM52.0001 132L66.1449 122.57L61.0982 115H52.0001V132ZM53.0001 133.5L38.8552 142.93L40.7412 145.759L43.5702 147.645L53.0001 133.5ZM54.5001 134.5L45.0702 148.645L51.3274 152.816L58.6232 150.992L54.5001 134.5ZM56.5001 134L60.6232 150.492L70.5186 148.019L72.9925 138.123L56.5001 134ZM57.0001 132L73.4925 136.123L75.3164 128.827L71.1449 122.57L57.0001 132ZM55.0001 129L67.0209 116.979L40.8552 138.43L55.0001 129ZM58.0001 132L45.9792 144.021L52.7853 150.827L62.1232 148.492L58.0001 132ZM60.0001 131.5L64.1232 147.992L70.4993 146.398L74.1449 140.93L60.0001 131.5ZM61.0001 130L75.1449 139.43L77.2839 136.221L77.8292 132.404L61.0001 130ZM57.5001 124.5L46.8802 137.775L47.4563 138.236L48.0702 138.645L57.5001 124.5ZM55.0001 122.5L38.2314 125.295L39.3008 131.711L44.3802 135.775L55.0001 122.5ZM55.5001 112.5L39.5825 106.531L39.0028 108.077L38.7314 109.705L55.5001 112.5ZM57.0001 108.5L43.1666 98.619L41.8673 100.438L41.0825 102.531L57.0001 108.5ZM59.5001 105L51.8974 89.7947L48.1208 91.683L45.6666 95.119L59.5001 105ZM62.5001 103.5L70.1027 118.705L70.1027 118.705L62.5001 103.5ZM64.5001 102.5L72.1027 117.705L81.5001 113.007V102.5H64.5001ZM57.8034 80.8745L50.8034 83.8745L64.1967 115.125L71.1967 112.125L57.8034 80.8745ZM45.4792 87.4792L42.4792 90.4792L66.5209 114.521L69.5209 111.521L45.4792 87.4792ZM40.0841 93.49L35.0841 101.49L63.916 119.51L68.916 111.51L40.0841 93.49ZM32.6977 107.915L31.6977 114.415L65.3024 119.585L66.3024 113.085L32.6977 107.915ZM31.5001 117V122.5H65.5001V117H31.5001ZM34.9001 112.3L31.9001 116.3L59.1001 136.7L62.1001 132.7L34.9001 112.3ZM28.6709 124.096C28.5807 124.727 28.4449 125.704 28.3284 126.604C28.2711 127.046 28.2099 127.535 28.1601 127.98C28.1358 128.198 28.1061 128.476 28.0804 128.768C28.0701 128.885 28.0001 129.628 28.0001 130.5H62.0001C62.0001 130.767 61.9934 130.982 61.9882 131.116C61.9827 131.258 61.9762 131.374 61.9713 131.453C61.9619 131.606 61.9525 131.714 61.949 131.754C61.9421 131.832 61.9399 131.845 61.9493 131.76C61.9673 131.6 61.9998 131.333 62.0467 130.971C62.1385 130.262 62.2527 129.439 62.3292 128.904L28.6709 124.096ZM28.0001 130.5C28.0001 129.883 28.0358 129.407 28.054 129.191C28.0746 128.944 28.0964 128.761 28.106 128.683C28.1221 128.551 28.1345 128.474 28.1106 128.636C28.0867 128.799 27.9751 129.527 27.8969 130.308C27.8286 130.992 27.6922 132.541 27.8549 134.385C27.9386 135.333 28.139 136.838 28.7137 138.578C29.2728 140.271 30.4502 142.992 32.9792 145.521L57.0209 121.479C59.4249 123.883 60.5086 126.432 60.9993 127.918C61.5056 129.451 61.6631 130.714 61.7233 131.396C61.8392 132.709 61.734 133.633 61.7282 133.692C61.7125 133.848 61.6947 133.951 61.7488 133.583C61.764 133.48 61.8116 133.16 61.8531 132.821C61.876 132.635 62.0001 131.673 62.0001 130.5H28.0001ZM32.9792 145.521C34.2331 146.775 35.628 147.778 35.9286 147.998C36.5472 148.45 37.1527 148.867 37.5702 149.145L56.4299 120.855C56.4045 120.838 56.3349 120.791 56.2409 120.726C56.1475 120.661 56.0619 120.6 55.9965 120.552C55.9195 120.496 55.9318 120.502 56.0106 120.565C56.0528 120.599 56.1535 120.68 56.2934 120.801C56.3657 120.863 56.4624 120.949 56.5772 121.054C56.6898 121.157 56.8423 121.301 57.0209 121.479L32.9792 145.521ZM61.1449 144.43L62.1449 142.93L33.8552 124.07L32.8552 125.57L61.1449 144.43ZM64.8292 135.904L65.3292 132.404L31.6709 127.596L31.1709 131.096L64.8292 135.904ZM31.5001 130C31.5001 131.123 31.5923 132.627 31.9098 134.268C32.0718 135.105 32.3663 136.368 32.9286 137.801C33.4218 139.057 34.5611 141.603 36.9791 144.021L61.021 119.979C63.239 122.197 64.2159 124.456 64.5778 125.378C65.0088 126.476 65.2033 127.358 65.2903 127.807C65.4579 128.673 65.5 129.377 65.5001 130L31.5001 130ZM36.9791 144.021C36.3084 143.35 35.8714 142.784 35.6761 142.522C35.4522 142.222 35.3004 141.989 35.2193 141.861C35.0785 141.638 34.9515 141.416 34.7949 141.103L65.2053 125.897C64.9603 125.407 63.5131 122.471 61.021 119.979L36.9791 144.021ZM33.0001 133.5V134H67.0001V133.5H33.0001ZM40.5702 148.145L42.0702 149.145L60.93 120.855L59.43 119.855L40.5702 148.145ZM68.5001 135V132H34.5001V135H68.5001ZM51.5001 149H52.0001V115H51.5001V149ZM37.8552 141.43L38.8552 142.93L67.1449 124.07L66.1449 122.57L37.8552 141.43ZM43.5702 147.645L45.0702 148.645L63.93 120.355L62.43 119.355L43.5702 147.645ZM58.6232 150.992L60.6232 150.492L52.377 117.508L50.377 118.008L58.6232 150.992ZM72.9925 138.123L73.4925 136.123L40.5076 127.877L40.0076 129.877L72.9925 138.123ZM71.1449 122.57L69.1449 119.57L40.8552 138.43L42.8552 141.43L71.1449 122.57ZM42.9792 141.021L45.9792 144.021L70.0209 119.979L67.0209 116.979L42.9792 141.021ZM62.1232 148.492L64.1232 147.992L55.877 115.008L53.877 115.508L62.1232 148.492ZM74.1449 140.93L75.1449 139.43L46.8552 120.57L45.8552 122.07L74.1449 140.93ZM77.8292 132.404C77.9561 131.516 78.138 130.016 78.199 128.492C78.2232 127.885 78.2748 126.364 78.0415 124.624C77.9491 123.935 77.6431 121.748 76.4606 119.273C75.499 117.261 71.0707 109.5 61.0001 109.5V143.5C51.0295 143.5 46.6813 135.812 45.7829 133.932C44.6635 131.589 44.4036 129.594 44.343 129.142C44.2423 128.391 44.2268 127.833 44.2227 127.617C44.2179 127.356 44.2241 127.185 44.2261 127.133C44.2288 127.067 44.2107 127.317 44.1709 127.596L77.8292 132.404ZM61.0001 109.5C62.1221 109.5 63.0437 109.613 63.6701 109.714C64.3174 109.819 64.8543 109.945 65.2462 110.048C66.007 110.249 66.5892 110.463 66.9068 110.585C67.5373 110.829 67.9691 111.046 68.0747 111.1C68.3261 111.226 68.3864 111.271 68.1703 111.142C67.7954 110.919 67.2764 110.586 66.93 110.355L48.0702 138.645C48.7237 139.081 49.7548 139.748 50.7798 140.358C51.2637 140.646 51.9866 141.065 52.7754 141.463C53.1497 141.652 53.8191 141.978 54.6449 142.297C54.8018 142.358 57.491 143.5 61.0001 143.5V109.5ZM68.1199 111.225L65.6199 109.225L44.3802 135.775L46.8802 137.775L68.1199 111.225ZM71.7688 119.705C71.6963 119.271 71.5879 118.598 71.5024 118.023C71.4584 117.727 71.4325 117.538 71.4215 117.45C71.4154 117.403 71.4235 117.461 71.4358 117.589C71.4421 117.654 71.4548 117.79 71.4669 117.974C71.4732 118.069 71.4808 118.199 71.4872 118.356C71.4933 118.507 71.5001 118.729 71.5001 119H37.5001C37.5001 120.37 37.6868 121.69 37.688 121.7C37.7448 122.15 37.8125 122.623 37.8727 123.027C37.9955 123.852 38.1371 124.729 38.2314 125.295L71.7688 119.705ZM71.5001 119C71.5001 119.507 71.4764 119.898 71.4661 120.055C71.4535 120.25 71.4399 120.401 71.4321 120.484C71.4168 120.646 71.4039 120.749 71.4035 120.753C71.4016 120.768 71.4101 120.7 71.4371 120.511C71.4887 120.152 71.5687 119.627 71.6687 118.991C71.8663 117.734 72.1073 116.263 72.2688 115.295L38.7314 109.705C38.5595 110.737 38.3004 112.316 38.0814 113.709C37.9731 114.398 37.8656 115.098 37.7818 115.682C37.7411 115.966 37.6949 116.299 37.6552 116.623C37.6359 116.781 37.6084 117.015 37.5831 117.282C37.5731 117.389 37.5001 118.113 37.5001 119H71.5001ZM71.4177 118.469L72.9177 114.469L41.0825 102.531L39.5825 106.531L71.4177 118.469ZM70.8335 118.381L73.3335 114.881L45.6666 95.119L43.1666 98.619L70.8335 118.381ZM67.1027 120.205L70.1027 118.705L54.8974 88.2947L51.8974 89.7947L67.1027 120.205ZM70.1027 118.705L72.1027 117.705L56.8974 87.2947L54.8974 88.2947L70.1027 118.705ZM81.5001 102.5V96.5H47.5001V102.5H81.5001Z" fill="#FF5733" mask="url(#path-12-inside-3_83_3)"/>
<mask id="path-14-inside-4_83_3" fill="white">
<path d="M150.5 147.5L140 139.5L150 137.5L158 146.5L168 160.5L173 166.5L176 171.5L175 167V157L176 154L178 151.5L181 151L184 153L186 156.5L185.5 165L184 172.5L181 181.5H178L175 177L169 168.5L156.5 154L150.5 147.5Z"/>
</mask>
<path d="M140 139.5L134.705 113.024L76.0867 124.748L123.637 160.977L140 139.5ZM150.5 147.5L170.34 129.186L168.74 127.453L166.863 126.023L150.5 147.5ZM156.5 154L176.95 136.371L176.651 136.023L176.34 135.686L156.5 154ZM169 168.5L191.058 152.93L190.304 151.861L189.45 150.871L169 168.5ZM175 177L197.465 162.023L197.266 161.724L197.058 161.43L175 177ZM178 181.5L155.535 196.477L163.55 208.5H178V181.5ZM181 181.5V208.5H200.46L206.614 190.038L181 181.5ZM184 172.5L209.614 181.038L210.146 179.443L210.476 177.795L184 172.5ZM185.5 165L211.976 170.295L212.343 168.457L212.453 166.585L185.5 165ZM186 156.5L212.953 158.085L213.425 150.073L209.443 143.104L186 156.5ZM184 153L207.443 139.604L204.28 134.07L198.977 130.535L184 153ZM181 151L195.977 128.535L187.093 122.612L176.561 124.367L181 151ZM178 151.5L173.561 124.867L163.37 126.566L156.917 134.633L178 151.5ZM176 154L154.917 137.133L151.908 140.893L150.386 145.462L176 154ZM175 157L149.386 148.462L148 152.619V157H175ZM175 167H148V169.964L148.643 172.857L175 167ZM176 171.5L152.848 185.391L202.357 165.643L176 171.5ZM173 166.5L196.152 152.609L195.078 150.819L193.742 149.215L173 166.5ZM168 160.5L146.029 176.193L146.614 177.012L147.258 177.785L168 160.5ZM158 146.5L179.971 130.807L179.135 129.637L178.18 128.562L158 146.5ZM150 137.5L170.18 119.562L159.891 107.987L144.705 111.024L150 137.5ZM123.637 160.977L134.137 168.977L166.863 126.023L156.363 118.023L123.637 160.977ZM130.66 165.814L136.66 172.314L176.34 135.686L170.34 129.186L130.66 165.814ZM136.05 171.629L148.55 186.129L189.45 150.871L176.95 136.371L136.05 171.629ZM146.942 184.07L152.942 192.57L197.058 161.43L191.058 152.93L146.942 184.07ZM152.535 191.977L155.535 196.477L200.465 166.523L197.465 162.023L152.535 191.977ZM178 208.5H181V154.5H178V208.5ZM206.614 190.038L209.614 181.038L158.386 163.962L155.386 172.962L206.614 190.038ZM210.476 177.795L211.976 170.295L159.024 159.705L157.524 167.205L210.476 177.795ZM212.453 166.585L212.953 158.085L159.047 154.915L158.547 163.415L212.453 166.585ZM209.443 143.104L207.443 139.604L160.557 166.396L162.557 169.896L209.443 143.104ZM198.977 130.535L195.977 128.535L166.023 173.465L169.023 175.465L198.977 130.535ZM176.561 124.367L173.561 124.867L182.439 178.133L185.439 177.633L176.561 124.367ZM156.917 134.633L154.917 137.133L197.083 170.867L199.083 168.367L156.917 134.633ZM150.386 145.462L149.386 148.462L200.614 165.538L201.614 162.538L150.386 145.462ZM148 157V167H202V157H148ZM148.643 172.857L149.643 177.357L202.357 165.643L201.357 161.143L148.643 172.857ZM199.152 157.609L196.152 152.609L149.848 180.391L152.848 185.391L199.152 157.609ZM193.742 149.215L188.742 143.215L147.258 177.785L152.258 183.785L193.742 149.215ZM189.971 144.807L179.971 130.807L136.029 162.193L146.029 176.193L189.971 144.807ZM178.18 128.562L170.18 119.562L129.82 155.438L137.82 164.438L178.18 128.562ZM144.705 111.024L134.705 113.024L145.295 165.976L155.295 163.976L144.705 111.024Z" fill="#FF5733" mask="url(#path-14-inside-4_83_3)"/>
<path d="M194.69 101.595L194.564 102.036L193.219 100.019L193.976 100.524L194.69 101.595Z" stroke="#FF5733" stroke-width="7"/>
<path d="M43.5 66.5L72 20.5M55 64.5L69 42.5M43.5 47.5C44.7 46.3 55 31.3333 60 24" stroke="black"/>
<path d="M127 105.5L128.5 102H131L131.5 104L132.5 105.5L131 107.5" stroke="black"/>
<path d="M96.5 70.5L92 36.5L93.5 25.5L98.5 22L104.5 20L112 20.5L118 23L123.5 28.5L131.5 42L134.5 49.5L136 55L138 62" stroke="#6D0F87" stroke-width="5"/>
<path d="M124 56.5L123 49.5L118 40.5L112.5 34L105.5 26.5L98 23H94H90L87.5 26.5L83.5 32.5L80.5 39.5L80 50.5L80.5 55L81.5 62" stroke="#6D0F87" stroke-width="5"/>
<path d="M128.5 81L133 78H135L139 80M110 85L111.5 83L113 81L114.5 80H116.5L119 81" stroke="black"/>
<path d="M130.5 63L143.5 61.5V65L141.5 67.5L139 69.5H134.5L131.5 68L130.5 65V63.5M108.5 107.5C108.5 107.5 115 114.5 119.5 115C124 115.5 126 115.5 126 115.5C126 115.5 131.374 115.813 134 114.5C134 114.5 137.5 113.5 140 111C142.5 108.5 143 107.25 143 107.25L145.5 103.5M92 70.5C93.6 70.9 101.667 70 105.5 69.5L106 72.5L104.5 74.5L102.5 76.5L100.5 77.5L95 76.5L92.5 74.5L92 70.5Z" stroke="black"/>
<ellipse cx="117.98" cy="96.9395" rx="5.72237" ry="8.71331" transform="rotate(-11.0258 117.98 96.9395)" fill="#0E0E0E"/>
<ellipse cx="117.98" cy="96.9395" rx="5.72237" ry="8.71331" transform="rotate(-11.0258 117.98 96.9395)" fill="#0E0E0E"/>
<ellipse cx="117.98" cy="96.9395" rx="5.72237" ry="8.71331" transform="rotate(-11.0258 117.98 96.9395)" fill="#0E0E0E"/>
<ellipse cx="118" cy="97" rx="5.53203" ry="8.20954" transform="rotate(-11.0258 118 97)" fill="#0E0E0E"/>
<ellipse cx="118" cy="97" rx="5.53203" ry="8.20954" transform="rotate(-11.0258 118 97)" fill="#0E0E0E"/>
<ellipse cx="118" cy="97" rx="5.53203" ry="8.20954" transform="rotate(-11.0258 118 97)" fill="white"/>
<ellipse cx="118.5" cy="97.6313" rx="2.95727" ry="3.12323" transform="rotate(-11.0258 118.5 97.6313)" fill="#0E0E0E"/>
<ellipse cx="118.5" cy="97.6313" rx="2.95727" ry="3.12323" transform="rotate(-11.0258 118.5 97.6313)" fill="#0E0E0E"/>
<ellipse cx="118.5" cy="97.6313" rx="2.95727" ry="3.12323" transform="rotate(-11.0258 118.5 97.6313)" fill="#020202"/>
<ellipse cx="136.283" cy="93.6465" rx="5.72237" ry="8.71331" transform="rotate(-11.0258 136.283 93.6465)" fill="#0E0E0E"/>
<ellipse cx="136.283" cy="93.6465" rx="5.72237" ry="8.71331" transform="rotate(-11.0258 136.283 93.6465)" fill="#0E0E0E"/>
<ellipse cx="136.283" cy="93.6465" rx="5.72237" ry="8.71331" transform="rotate(-11.0258 136.283 93.6465)" fill="#0E0E0E"/>
<ellipse cx="136.303" cy="93.707" rx="5.53203" ry="8.20954" transform="rotate(-11.0258 136.303 93.707)" fill="#0E0E0E"/>
<ellipse cx="136.303" cy="93.707" rx="5.53203" ry="8.20954" transform="rotate(-11.0258 136.303 93.707)" fill="#0E0E0E"/>
<ellipse cx="136.303" cy="93.707" rx="5.53203" ry="8.20954" transform="rotate(-11.0258 136.303 93.707)" fill="white"/>
<ellipse cx="137" cy="94.5654" rx="2.47901" ry="2.96338" transform="rotate(-11.0258 137 94.5654)" fill="#0E0E0E"/>
<ellipse cx="137" cy="94.5654" rx="2.47901" ry="2.96338" transform="rotate(-11.0258 137 94.5654)" fill="#0E0E0E"/>
<ellipse cx="137" cy="94.5654" rx="2.47901" ry="2.96338" transform="rotate(-11.0258 137 94.5654)" fill="#020202"/>
<mask id="path-29-inside-5_83_3" fill="white">
<path d="M145 180.5L67.5 187L74 192.5L141 187L145 180.5Z"/>
</mask>
<path d="M67.5 187L66.915 180.024L50.0873 181.436L62.9784 192.344L67.5 187ZM145 180.5L150.962 184.169L158.225 172.366L144.415 173.524L145 180.5ZM141 187L141.573 193.977L145.104 193.687L146.962 190.669L141 187ZM74 192.5L69.4784 197.844L71.688 199.713L74.5727 199.477L74 192.5ZM68.085 193.976L145.585 187.476L144.415 173.524L66.915 180.024L68.085 193.976ZM139.038 176.831L135.038 183.331L146.962 190.669L150.962 184.169L139.038 176.831ZM140.427 180.023L73.4273 185.523L74.5727 199.477L141.573 193.977L140.427 180.023ZM78.5216 187.156L72.0216 181.656L62.9784 192.344L69.4784 197.844L78.5216 187.156Z" fill="#6D0F87" mask="url(#path-29-inside-5_83_3)"/>
<ellipse cx="109.5" cy="187.5" rx="4.5" ry="3.5" fill="#1E1E1E"/>
<path d="M5.64 202H21.24V206.52H7.48L6.76 207.32V213.6H16V218.12H6.76V223.72L7.92 225.48H21.24V230H5.52L1.92 224.64V205.8L5.64 202ZM29.5044 207.88H42.8644L45.6644 212V230H40.8244V228.68L38.6244 230H29.9044L26.3044 224.64V222.52L32.7444 215.8H40.8244V212.32H29.5044V207.88ZM31.3044 223.76L32.0644 225.48H40.6644V220.36H34.5444L31.3044 223.68V223.76ZM54.4088 207.68H66.0888L68.8088 211.64L65.6888 214.88L63.7688 212.08H56.4088L55.6888 212.72V214.56L56.8088 216.2H66.1688L69.2888 220.84V226.48L66.1288 230H52.8088L50.6488 226.64L53.7688 223.44L55.1688 225.48H64.0488L64.4488 225.04V221.8L63.6888 220.68H54.3288L50.8888 215.52V211.12L54.4088 207.68ZM88.7531 207.96H93.5931V231.44L86.6331 238.68H74.3131V234.16H84.6331L88.7531 230H78.6731L74.3131 223.56V207.96H79.1531V222.68L81.1131 225.52H88.7531V207.96ZM121.482 207.96H126.322V209.28L128.482 207.96H130.802L132.482 210.44L136.562 207.96H138.802L142.402 213.28V230H137.562V214.16L136.442 212.44H135.122L134.402 213.28V218.92H129.562V214.16L128.402 212.44H127.042L126.322 213.28V230H121.482V207.96ZM149.426 207.88H162.786L165.586 212V230H160.746V228.68L158.546 230H149.826L146.226 224.64V222.52L152.666 215.8H160.746V212.32H149.426V207.88ZM151.226 223.76L151.986 225.48H160.586V220.36H154.466L151.226 223.68V223.76ZM169.891 207.96H172.651L176.131 210L178.091 207.96H187.171L189.891 212.04L186.171 214.56L184.811 212.44H180.011L178.731 213.8V225.52H184.411V230H169.891V225.52H173.931V214.16L172.771 212.44H169.891V207.96ZM194.235 200.08H199.075V214.24L206.355 206.68H212.715L205.675 213.8L213.555 225.48V230H208.715V226.32L202.435 217.16L199.075 220.64V230H194.235V200.08ZM221.979 207.88H233.779L237.419 213.32L230.339 220.6H223.019V223.48L224.299 225.36H231.979L234.179 223.08L236.979 226.6L233.699 230H221.899L218.419 224.8V211.56L221.979 207.88ZM223.019 213.48V216.56H228.579L231.539 213.44L230.899 212.52H223.939L223.019 213.48ZM246.084 200.08H250.924V207.92H257.404V212.44H250.924V223.76L252.044 225.48H255.404L258.244 222.64L260.804 226.36L257.404 230H249.684L246.084 224.72V212.44H242.884V207.92H246.084V200.08Z" fill="#6D0F87"/>
<path d="M39.544 241.928C39.64 242.856 39.752 243.904 39.88 245.072C40.024 246.224 40.168 247.408 40.312 248.624C40.472 249.824 40.616 250.96 40.744 252.032C40.888 253.104 41.016 254.016 41.128 254.768C41.16 255.04 41.224 255.36 41.32 255.728C41.416 256.08 41.496 256.352 41.56 256.544C41.56 256.56 41.56 256.576 41.56 256.592C41.576 256.592 41.584 256.608 41.584 256.64C41.584 256.8 41.456 256.92 41.2 257C40.944 257.096 40.68 257.144 40.408 257.144C40.2 257.144 40.008 257.112 39.832 257.048C39.656 256.984 39.56 256.88 39.544 256.736C39.528 256.4 39.512 256.112 39.496 255.872C39.48 255.616 39.456 255.312 39.424 254.96C39.344 254.24 39.248 253.376 39.136 252.368C39.024 251.344 38.904 250.256 38.776 249.104C38.664 247.952 38.544 246.808 38.416 245.672C38.304 244.536 38.2 243.48 38.104 242.504C37.624 243.496 37.136 244.52 36.64 245.576C36.16 246.616 35.704 247.624 35.272 248.6C34.84 249.56 34.456 250.432 34.12 251.216C33.784 252 33.52 252.64 33.328 253.136C33.136 253.632 33.04 253.928 33.04 254.024C33.024 254.232 32.88 254.4 32.608 254.528C32.336 254.656 32.064 254.72 31.792 254.72C31.616 254.72 31.456 254.696 31.312 254.648C31.168 254.584 31.08 254.488 31.048 254.36C30.968 254.104 30.872 253.832 30.76 253.544C30.664 253.256 30.592 253.064 30.544 252.968C30.304 252.408 30.016 251.72 29.68 250.904C29.344 250.072 28.984 249.184 28.6 248.24C28.216 247.28 27.832 246.328 27.448 245.384C27.08 244.44 26.744 243.56 26.44 242.744C26.328 244.056 26.192 245.44 26.032 246.896C25.888 248.352 25.736 249.776 25.576 251.168C25.416 252.56 25.264 253.832 25.12 254.984C25.088 255.272 25.064 255.552 25.048 255.824C25.032 256.096 25.008 256.392 24.976 256.712C24.96 256.856 24.832 256.968 24.592 257.048C24.368 257.128 24.12 257.168 23.848 257.168C23.624 257.168 23.424 257.136 23.248 257.072C23.088 257.008 23.008 256.92 23.008 256.808V256.76C23.136 256.344 23.264 255.768 23.392 255.032C23.52 254.296 23.648 253.464 23.776 252.536C23.904 251.608 24.024 250.648 24.136 249.656C24.264 248.648 24.384 247.68 24.496 246.752C24.608 245.808 24.696 244.96 24.76 244.208C24.84 243.44 24.904 242.832 24.952 242.384C25 241.92 25.024 241.68 25.024 241.664C25.024 241.536 25.016 241.432 25 241.352C25 241.256 25 241.168 25 241.088C25 241.056 25 241.016 25 240.968C25 240.92 25.008 240.88 25.024 240.848C25.056 240.656 25.224 240.488 25.528 240.344C25.832 240.2 26.136 240.128 26.44 240.128C26.664 240.128 26.824 240.168 26.92 240.248C27.016 240.328 27.144 240.576 27.304 240.992C27.672 241.952 28.064 242.96 28.48 244.016C28.896 245.072 29.312 246.12 29.728 247.16C30.144 248.2 30.544 249.184 30.928 250.112C31.312 251.024 31.664 251.832 31.984 252.536C32.496 251.288 33.04 249.984 33.616 248.624C34.208 247.264 34.808 245.912 35.416 244.568C36.024 243.224 36.6 241.984 37.144 240.848C37.256 240.624 37.36 240.416 37.456 240.224C37.552 240.016 37.736 239.912 38.008 239.912C38.184 239.912 38.4 239.96 38.656 240.056C38.912 240.136 39.144 240.24 39.352 240.368C39.56 240.496 39.664 240.624 39.664 240.752C39.664 240.912 39.64 241.072 39.592 241.232C39.56 241.376 39.544 241.552 39.544 241.76V241.928ZM54.2673 246.032C54.2193 246.384 54.1713 246.856 54.1233 247.448C54.0913 248.024 54.0593 248.64 54.0273 249.296C54.0113 249.936 53.9953 250.536 53.9793 251.096C53.9633 251.656 53.9553 252.08 53.9553 252.368C53.9553 252.592 53.9633 252.928 53.9793 253.376C54.0113 253.808 54.0833 254.272 54.1953 254.768C54.3233 255.264 54.5233 255.728 54.7953 256.16C54.8273 256.224 54.8433 256.272 54.8433 256.304C54.8433 256.48 54.7313 256.696 54.5073 256.952C54.2993 257.192 54.0593 257.312 53.7873 257.312C53.5473 257.312 53.3313 257.144 53.1393 256.808C52.9633 256.456 52.8193 256.04 52.7073 255.56C52.6113 255.064 52.5393 254.6 52.4913 254.168C51.8993 255.288 51.1793 256.112 50.3313 256.64C49.4993 257.168 48.6353 257.432 47.7393 257.432C46.5713 257.432 45.6353 257.04 44.9313 256.256C44.2273 255.456 43.8753 254.304 43.8753 252.8C43.8753 251.776 44.0433 250.816 44.3793 249.92C44.7153 249.024 45.1633 248.232 45.7233 247.544C46.2993 246.856 46.9393 246.32 47.6433 245.936C48.3473 245.536 49.0673 245.336 49.8033 245.336C50.3633 245.336 50.8753 245.464 51.3393 245.72C51.8033 245.96 52.1713 246.36 52.4433 246.92V245.6C52.4433 245.44 52.6113 245.36 52.9473 245.36C53.2193 245.36 53.5073 245.416 53.8113 245.528C54.1153 245.64 54.2673 245.792 54.2673 245.984V246.032ZM52.4193 247.88C52.2753 248.024 52.1393 248.096 52.0113 248.096C51.9473 248.096 51.8913 248.064 51.8433 248C51.5713 247.536 51.2513 247.208 50.8833 247.016C50.5313 246.824 50.1713 246.728 49.8033 246.728C49.3073 246.728 48.8033 246.88 48.2913 247.184C47.7953 247.472 47.3313 247.888 46.8993 248.432C46.4833 248.96 46.1473 249.592 45.8913 250.328C45.6353 251.048 45.5073 251.832 45.5073 252.68C45.5073 253.896 45.7153 254.752 46.1313 255.248C46.5473 255.744 47.0753 255.992 47.7153 255.992C48.4833 255.992 49.2113 255.744 49.8993 255.248C50.5873 254.736 51.1553 254.032 51.6033 253.136C52.0673 252.24 52.3233 251.2 52.3713 250.016C52.3873 249.792 52.3953 249.48 52.3953 249.08C52.3953 248.68 52.4033 248.28 52.4193 247.88ZM58.5439 242.84C58.5439 242.68 58.5359 242.432 58.5199 242.096C58.5039 241.76 58.4879 241.416 58.4719 241.064C58.4719 240.712 58.4719 240.448 58.4719 240.272C58.4719 240.112 58.6319 240.032 58.9519 240.032C59.2079 240.032 59.4799 240.096 59.7679 240.224C60.0719 240.336 60.2239 240.496 60.2239 240.704C60.2239 240.832 60.2159 241.032 60.1999 241.304C60.1839 241.56 60.1679 241.832 60.1519 242.12C60.1359 242.408 60.1279 242.648 60.1279 242.84V249.464L64.6399 246.344C64.8479 246.2 65.0319 246.048 65.1919 245.888C65.3679 245.728 65.5039 245.6 65.5999 245.504C65.6639 245.424 65.7919 245.384 65.9839 245.384C66.1759 245.384 66.3839 245.424 66.6079 245.504C66.8319 245.584 67.0239 245.688 67.1839 245.816C67.3439 245.928 67.4239 246.04 67.4239 246.152C67.4239 246.216 67.3839 246.272 67.3039 246.32C66.9679 246.544 66.6399 246.752 66.3199 246.944C65.9999 247.12 65.7359 247.28 65.5279 247.424L61.8799 249.968C62.3439 250.416 62.8799 250.968 63.4879 251.624C64.1119 252.28 64.7439 252.936 65.3839 253.592C66.0239 254.248 66.5919 254.832 67.0879 255.344C67.2639 255.504 67.4719 255.672 67.7119 255.848C67.9519 256.024 68.1999 256.168 68.4559 256.28C68.5359 256.312 68.5759 256.368 68.5759 256.448C68.5759 256.56 68.4959 256.688 68.3359 256.832C68.1919 256.96 68.0159 257.072 67.8079 257.168C67.5999 257.28 67.4079 257.336 67.2319 257.336C67.1199 257.336 67.0399 257.312 66.9919 257.264C66.7839 257.104 66.5679 256.928 66.3439 256.736C66.1199 256.544 65.9199 256.36 65.7439 256.184C65.4239 255.848 65.0479 255.448 64.6159 254.984C64.1839 254.52 63.7359 254.032 63.2719 253.52C62.8079 253.008 62.3519 252.52 61.9039 252.056C61.4559 251.576 61.0559 251.16 60.7039 250.808L60.1279 251.168V254.456C60.1279 254.552 60.1359 254.768 60.1519 255.104C60.1839 255.44 60.2079 255.792 60.2239 256.16C60.2399 256.528 60.2479 256.808 60.2479 257C60.2479 257.16 60.0879 257.24 59.7679 257.24C59.5119 257.24 59.2319 257.176 58.9279 257.048C58.6399 256.936 58.4959 256.776 58.4959 256.568C58.4959 256.44 58.4959 256.232 58.4959 255.944C58.5119 255.64 58.5199 255.344 58.5199 255.056C58.5359 254.768 58.5439 254.568 58.5439 254.456V242.84ZM71.6183 252.296V252.536C71.6183 253.576 71.8823 254.416 72.4103 255.056C72.9543 255.696 73.6263 256.016 74.4263 256.016C75.4503 256.016 76.3863 255.856 77.2343 255.536C78.0983 255.2 78.8503 254.688 79.4903 254C79.6023 253.872 79.7063 253.784 79.8023 253.736C79.8983 253.672 79.9783 253.64 80.0423 253.64C80.2023 253.64 80.2823 253.736 80.2823 253.928C80.2823 254.072 80.1623 254.328 79.9223 254.696C79.6983 255.064 79.3463 255.464 78.8663 255.896C78.3863 256.312 77.7783 256.672 77.0423 256.976C76.3063 257.28 75.4343 257.432 74.4263 257.432C73.6103 257.432 72.8663 257.232 72.1943 256.832C71.5383 256.416 71.0183 255.824 70.6343 255.056C70.2503 254.288 70.0583 253.376 70.0583 252.32V251.984C69.9143 251.872 69.7943 251.744 69.6983 251.6C69.6023 251.456 69.5543 251.328 69.5543 251.216C69.5543 251.008 69.7063 250.904 70.0103 250.904C70.0263 250.904 70.0583 250.904 70.1063 250.904C70.1703 250.888 70.2103 250.88 70.2263 250.88C70.3383 250.304 70.5623 249.696 70.8983 249.056C71.2503 248.416 71.6903 247.816 72.2183 247.256C72.7463 246.68 73.3463 246.216 74.0183 245.864C74.7063 245.512 75.4423 245.336 76.2263 245.336C77.2183 245.336 78.0023 245.512 78.5783 245.864C79.1703 246.2 79.5863 246.64 79.8263 247.184C80.0823 247.712 80.2103 248.264 80.2103 248.84C80.2103 249.384 80.1623 249.816 80.0663 250.136C79.9863 250.456 79.7863 250.72 79.4663 250.928C79.1463 251.12 78.6263 251.328 77.9063 251.552C77.1863 251.776 76.3223 251.96 75.3143 252.104C74.3223 252.232 73.1943 252.296 71.9303 252.296H71.6183ZM72.2903 250.952C73.4743 250.952 74.4663 250.888 75.2663 250.76C76.0663 250.616 76.7303 250.472 77.2583 250.328C77.8343 250.152 78.2023 249.96 78.3623 249.752C78.5383 249.544 78.6263 249.232 78.6263 248.816C78.6263 247.424 77.8183 246.728 76.2023 246.728C75.6103 246.728 75.0663 246.864 74.5703 247.136C74.0743 247.408 73.6343 247.76 73.2503 248.192C72.8823 248.624 72.5703 249.088 72.3143 249.584C72.0743 250.064 71.9063 250.52 71.8103 250.952H72.2903ZM92.5362 260.936C92.2322 260.936 91.8882 260.904 91.5042 260.84C91.1202 260.776 90.7442 260.592 90.3762 260.288C90.2962 260.208 90.2562 260.104 90.2562 259.976C90.2562 259.752 90.3362 259.496 90.4962 259.208C90.6562 258.936 90.8402 258.8 91.0482 258.8C91.1602 258.8 91.2642 258.856 91.3602 258.968C91.5682 259.176 91.7922 259.304 92.0322 259.352C92.2722 259.4 92.4962 259.424 92.7042 259.424C92.9602 259.424 93.2082 259.328 93.4482 259.136C93.7042 258.944 93.9442 258.6 94.1682 258.104L95.2242 255.896L91.7202 247.952C91.6082 247.712 91.4482 247.392 91.2402 246.992C91.0482 246.592 90.8802 246.264 90.7362 246.008C90.7042 245.944 90.6882 245.896 90.6882 245.864C90.6882 245.736 90.7842 245.64 90.9762 245.576C91.1842 245.512 91.4082 245.48 91.6482 245.48C91.8722 245.48 92.0722 245.504 92.2482 245.552C92.4402 245.6 92.5522 245.68 92.5842 245.792C92.6962 246.08 92.8082 246.376 92.9202 246.68C93.0482 246.968 93.1762 247.264 93.3042 247.568L96.0882 254.024L99.0402 247.808C99.2002 247.488 99.3522 247.128 99.4962 246.728C99.6562 246.328 99.7922 245.944 99.9042 245.576C99.9522 245.432 100.088 245.36 100.312 245.36C100.552 245.36 100.808 245.448 101.08 245.624C101.352 245.8 101.488 246.016 101.488 246.272C101.488 246.368 101.464 246.464 101.416 246.56C101.288 246.8 101.136 247.088 100.96 247.424C100.784 247.744 100.624 248.048 100.48 248.336L95.4162 258.968C95.0962 259.64 94.7282 260.136 94.3122 260.456C93.9122 260.776 93.4002 260.936 92.7762 260.936H92.5362ZM106.648 246.32C106.968 246.08 107.352 245.856 107.8 245.648C108.248 245.44 108.808 245.336 109.48 245.336C110.392 245.336 111.2 245.568 111.904 246.032C112.608 246.496 113.152 247.16 113.536 248.024C113.936 248.872 114.136 249.904 114.136 251.12C114.136 251.888 114.008 252.648 113.752 253.4C113.512 254.136 113.144 254.816 112.648 255.44C112.168 256.048 111.568 256.536 110.848 256.904C110.144 257.256 109.328 257.432 108.4 257.432C106.8 257.432 105.552 256.952 104.656 255.992C103.776 255.016 103.336 253.696 103.336 252.032C103.336 251.328 103.448 250.632 103.672 249.944C103.912 249.24 104.192 248.6 104.512 248.024C104.848 247.448 105.176 246.984 105.496 246.632C105.816 246.28 106.064 246.104 106.24 246.104C106.4 246.104 106.536 246.176 106.648 246.32ZM108.4 255.968C109.184 255.968 109.88 255.76 110.488 255.344C111.112 254.912 111.608 254.328 111.976 253.592C112.344 252.856 112.528 252.032 112.528 251.12C112.528 249.792 112.264 248.736 111.736 247.952C111.224 247.168 110.424 246.776 109.336 246.776C108.696 246.776 108.104 246.928 107.56 247.232C107.032 247.536 106.568 247.944 106.168 248.456C105.784 248.968 105.48 249.536 105.256 250.16C105.048 250.768 104.944 251.384 104.944 252.008C104.944 253.32 105.24 254.312 105.832 254.984C106.44 255.64 107.296 255.968 108.4 255.968ZM127.469 246.032C127.421 246.32 127.357 246.928 127.277 247.856C127.213 248.784 127.181 249.936 127.181 251.312C127.181 251.44 127.181 251.696 127.181 252.08C127.197 252.448 127.229 252.88 127.277 253.376C127.341 253.872 127.437 254.368 127.565 254.864C127.693 255.36 127.869 255.792 128.093 256.16C128.109 256.192 128.117 256.24 128.117 256.304C128.117 256.48 128.005 256.696 127.781 256.952C127.573 257.192 127.333 257.312 127.061 257.312C126.853 257.312 126.677 257.208 126.533 257C126.389 256.776 126.269 256.496 126.173 256.16C126.077 255.824 125.997 255.488 125.933 255.152C125.885 254.8 125.853 254.504 125.837 254.264C125.405 255.144 124.781 255.896 123.965 256.52C123.165 257.128 122.269 257.432 121.277 257.432C120.349 257.432 119.621 257.216 119.093 256.784C118.581 256.352 118.213 255.792 117.989 255.104C117.781 254.416 117.677 253.68 117.677 252.896V248.168C117.677 248.072 117.669 247.856 117.653 247.52C117.637 247.184 117.621 246.832 117.605 246.464C117.605 246.08 117.605 245.8 117.605 245.624C117.605 245.464 117.765 245.384 118.085 245.384C118.341 245.384 118.613 245.448 118.901 245.576C119.205 245.688 119.357 245.848 119.357 246.056C119.357 246.184 119.349 246.384 119.333 246.656C119.333 246.912 119.325 247.184 119.309 247.472C119.309 247.744 119.309 247.976 119.309 248.168V252.8C119.309 253.728 119.477 254.496 119.813 255.104C120.149 255.696 120.637 255.992 121.277 255.992C121.933 255.992 122.581 255.728 123.221 255.2C123.877 254.672 124.429 253.944 124.877 253.016C125.341 252.072 125.605 250.992 125.669 249.776C125.685 249.52 125.693 249.192 125.693 248.792C125.693 248.376 125.693 247.952 125.693 247.52V245.6C125.693 245.44 125.861 245.36 126.197 245.36C126.469 245.36 126.749 245.416 127.037 245.528C127.325 245.64 127.469 245.792 127.469 245.984V246.032ZM131.881 248.192C131.881 248.032 131.873 247.784 131.857 247.448C131.841 247.112 131.825 246.768 131.809 246.416C131.809 246.064 131.809 245.8 131.809 245.624C131.809 245.464 131.969 245.384 132.289 245.384C132.545 245.384 132.817 245.448 133.105 245.576C133.409 245.688 133.561 245.848 133.561 246.056C133.561 246.216 133.545 246.392 133.513 246.584C133.497 246.776 133.489 247.008 133.489 247.28C133.809 246.752 134.265 246.296 134.857 245.912C135.449 245.528 136.161 245.336 136.993 245.336C137.473 245.336 137.921 245.416 138.337 245.576C138.753 245.736 139.089 245.928 139.345 246.152C139.617 246.376 139.753 246.584 139.753 246.776C139.753 247.032 139.657 247.304 139.465 247.592C139.289 247.88 139.097 248.024 138.889 248.024C138.761 248.024 138.649 247.944 138.553 247.784C138.393 247.48 138.137 247.256 137.785 247.112C137.449 246.968 137.161 246.896 136.921 246.896C136.249 246.896 135.625 247.104 135.049 247.52C134.489 247.936 134.073 248.576 133.801 249.44C133.689 249.792 133.609 250.184 133.561 250.616C133.513 251.048 133.481 251.568 133.465 252.176C133.465 252.784 133.465 253.544 133.465 254.456C133.465 254.952 133.481 255.432 133.513 255.896C133.561 256.36 133.585 256.728 133.585 257C133.585 257.16 133.425 257.24 133.105 257.24C132.849 257.24 132.569 257.176 132.265 257.048C131.977 256.936 131.833 256.776 131.833 256.568C131.833 256.44 131.833 256.232 131.833 255.944C131.849 255.64 131.857 255.344 131.857 255.056C131.873 254.768 131.881 254.568 131.881 254.456V248.192ZM144.618 251.192C143.722 250.984 143.05 250.664 142.602 250.232C142.154 249.784 141.93 249.192 141.93 248.456C141.93 247.832 142.13 247.288 142.53 246.824C142.93 246.36 143.466 246 144.138 245.744C144.81 245.472 145.538 245.336 146.322 245.336C147.25 245.336 148.01 245.472 148.602 245.744C149.194 246 149.714 246.368 150.162 246.848C150.194 246.88 150.21 246.952 150.21 247.064C150.21 247.272 150.122 247.504 149.946 247.76C149.786 248.016 149.618 248.144 149.442 248.144C149.346 248.144 149.218 248.04 149.058 247.832C148.818 247.464 148.514 247.2 148.146 247.04C147.794 246.864 147.45 246.76 147.114 246.728C146.778 246.68 146.514 246.656 146.322 246.656C145.394 246.656 144.69 246.84 144.21 247.208C143.73 247.56 143.49 247.992 143.49 248.504C143.49 248.824 143.594 249.096 143.802 249.32C144.026 249.544 144.466 249.736 145.122 249.896L147.426 250.448C148.466 250.688 149.282 251.08 149.874 251.624C150.482 252.168 150.786 252.936 150.786 253.928C150.786 254.568 150.594 255.152 150.21 255.68C149.842 256.208 149.314 256.632 148.626 256.952C147.938 257.272 147.122 257.432 146.178 257.432C145.25 257.432 144.474 257.32 143.85 257.096C143.242 256.872 142.754 256.608 142.386 256.304C142.018 256 141.754 255.72 141.594 255.464C141.434 255.208 141.354 255.04 141.354 254.96C141.354 254.72 141.466 254.472 141.69 254.216C141.93 253.944 142.138 253.808 142.314 253.808C142.426 253.808 142.506 253.864 142.554 253.976C142.682 254.296 142.858 254.616 143.082 254.936C143.322 255.256 143.682 255.52 144.162 255.728C144.642 255.936 145.314 256.04 146.178 256.04C147.154 256.04 147.898 255.832 148.41 255.416C148.938 255 149.202 254.52 149.202 253.976C149.202 253.416 149.058 252.96 148.77 252.608C148.482 252.256 147.898 251.976 147.018 251.768L144.618 251.192ZM155.22 252.296V252.536C155.22 253.576 155.484 254.416 156.012 255.056C156.556 255.696 157.228 256.016 158.028 256.016C159.052 256.016 159.988 255.856 160.836 255.536C161.7 255.2 162.452 254.688 163.092 254C163.204 253.872 163.308 253.784 163.404 253.736C163.5 253.672 163.58 253.64 163.644 253.64C163.804 253.64 163.884 253.736 163.884 253.928C163.884 254.072 163.764 254.328 163.524 254.696C163.3 255.064 162.948 255.464 162.468 255.896C161.988 256.312 161.38 256.672 160.644 256.976C159.908 257.28 159.036 257.432 158.028 257.432C157.212 257.432 156.468 257.232 155.796 256.832C155.14 256.416 154.62 255.824 154.236 255.056C153.852 254.288 153.66 253.376 153.66 252.32V251.984C153.516 251.872 153.396 251.744 153.3 251.6C153.204 251.456 153.156 251.328 153.156 251.216C153.156 251.008 153.308 250.904 153.612 250.904C153.628 250.904 153.66 250.904 153.708 250.904C153.772 250.888 153.812 250.88 153.828 250.88C153.94 250.304 154.164 249.696 154.5 249.056C154.852 248.416 155.292 247.816 155.82 247.256C156.348 246.68 156.948 246.216 157.62 245.864C158.308 245.512 159.044 245.336 159.828 245.336C160.82 245.336 161.604 245.512 162.18 245.864C162.772 246.2 163.188 246.64 163.428 247.184C163.684 247.712 163.812 248.264 163.812 248.84C163.812 249.384 163.764 249.816 163.668 250.136C163.588 250.456 163.388 250.72 163.068 250.928C162.748 251.12 162.228 251.328 161.508 251.552C160.788 251.776 159.924 251.96 158.916 252.104C157.924 252.232 156.796 252.296 155.532 252.296H155.22ZM155.892 250.952C157.076 250.952 158.068 250.888 158.868 250.76C159.668 250.616 160.332 250.472 160.86 250.328C161.436 250.152 161.804 249.96 161.964 249.752C162.14 249.544 162.228 249.232 162.228 248.816C162.228 247.424 161.42 246.728 159.804 246.728C159.212 246.728 158.668 246.864 158.172 247.136C157.676 247.408 157.236 247.76 156.852 248.192C156.484 248.624 156.172 249.088 155.916 249.584C155.676 250.064 155.508 250.52 155.412 250.952H155.892ZM167.531 242.84C167.531 242.68 167.523 242.432 167.507 242.096C167.491 241.76 167.475 241.416 167.459 241.064C167.459 240.712 167.459 240.448 167.459 240.272C167.459 240.192 167.507 240.136 167.603 240.104C167.699 240.056 167.811 240.032 167.939 240.032C168.211 240.032 168.491 240.096 168.779 240.224C169.083 240.336 169.235 240.496 169.235 240.704C169.235 240.832 169.227 241.032 169.211 241.304C169.211 241.56 169.203 241.832 169.187 242.12C169.187 242.408 169.187 242.648 169.187 242.84V254.48C169.187 254.576 169.195 254.792 169.211 255.128C169.227 255.464 169.235 255.816 169.235 256.184C169.251 256.552 169.259 256.832 169.259 257.024C169.259 257.104 169.211 257.16 169.115 257.192C169.019 257.24 168.907 257.264 168.779 257.264C168.523 257.264 168.243 257.2 167.939 257.072C167.635 256.96 167.483 256.8 167.483 256.592C167.483 256.464 167.483 256.256 167.483 255.968C167.499 255.664 167.507 255.368 167.507 255.08C167.523 254.792 167.531 254.592 167.531 254.48V242.84ZM174.556 246.848H174.244C173.892 246.848 173.612 246.864 173.404 246.896C173.212 246.912 172.98 246.928 172.708 246.944H172.684C172.492 246.944 172.316 246.824 172.156 246.584C171.996 246.344 171.916 246.12 171.916 245.912C171.916 245.688 172.012 245.576 172.204 245.576H173.98L174.556 245.552V242.864C174.556 242.24 174.692 241.72 174.964 241.304C175.236 240.872 175.588 240.552 176.02 240.344C176.468 240.12 176.924 240.008 177.388 240.008C177.98 240.008 178.468 240.096 178.852 240.272C179.236 240.448 179.524 240.656 179.716 240.896C179.924 241.12 180.028 241.32 180.028 241.496C180.028 241.736 179.948 241.984 179.788 242.24C179.628 242.48 179.46 242.6 179.284 242.6C179.156 242.6 179.036 242.512 178.924 242.336C178.748 242 178.508 241.776 178.204 241.664C177.9 241.536 177.62 241.472 177.364 241.472C177.06 241.472 176.788 241.592 176.548 241.832C176.308 242.072 176.188 242.448 176.188 242.96V245.504L176.692 245.48C176.884 245.464 177.116 245.448 177.388 245.432C177.676 245.416 177.948 245.4 178.204 245.384C178.46 245.352 178.644 245.336 178.756 245.336H178.78C178.988 245.336 179.164 245.456 179.308 245.696C179.468 245.936 179.548 246.16 179.548 246.368C179.548 246.608 179.452 246.728 179.26 246.728C179.148 246.728 178.948 246.728 178.66 246.728C178.372 246.728 178.068 246.728 177.748 246.728C177.428 246.728 177.164 246.736 176.956 246.752L176.188 246.776V254.48C176.188 254.976 176.196 255.456 176.212 255.92C176.244 256.384 176.26 256.752 176.26 257.024C176.26 257.184 176.1 257.264 175.78 257.264C175.524 257.264 175.244 257.2 174.94 257.072C174.652 256.96 174.508 256.8 174.508 256.592C174.508 256.4 174.516 256.064 174.532 255.584C174.548 255.088 174.556 254.632 174.556 254.216V246.848ZM199.053 256.592C199.069 256.464 199.077 256.248 199.077 255.944C199.077 255.64 199.077 255.328 199.077 255.008C199.093 254.672 199.101 254.416 199.101 254.24V249.968C199.101 249.024 198.973 248.272 198.717 247.712C198.461 247.136 197.933 246.848 197.133 246.848C196.589 246.848 196.037 246.952 195.477 247.16C194.933 247.368 194.437 247.712 193.989 248.192C193.541 248.672 193.197 249.312 192.957 250.112C192.845 250.512 192.757 250.984 192.693 251.528C192.645 252.056 192.613 252.584 192.597 253.112C192.597 253.64 192.589 254.096 192.573 254.48V254.864C192.573 255.248 192.581 255.624 192.597 255.992C192.613 256.36 192.629 256.704 192.645 257.024C192.645 257.184 192.493 257.264 192.189 257.264C191.933 257.264 191.661 257.2 191.373 257.072C191.085 256.96 190.941 256.8 190.941 256.592C190.941 256.464 190.941 256.232 190.941 255.896C190.957 255.56 190.965 255.232 190.965 254.912C190.981 254.576 190.989 254.352 190.989 254.24V242.84C190.989 242.68 190.981 242.432 190.965 242.096C190.949 241.76 190.933 241.416 190.917 241.064C190.917 240.712 190.917 240.448 190.917 240.272C190.917 240.112 191.069 240.032 191.373 240.032C191.629 240.032 191.901 240.096 192.189 240.224C192.477 240.336 192.621 240.496 192.621 240.704C192.621 240.832 192.613 241.048 192.597 241.352C192.597 241.656 192.589 241.976 192.573 242.312C192.573 242.632 192.573 242.888 192.573 243.08V247.976C193.085 247.128 193.749 246.48 194.565 246.032C195.397 245.584 196.253 245.36 197.133 245.36C197.901 245.36 198.517 245.504 198.981 245.792C199.461 246.064 199.821 246.424 200.061 246.872C200.317 247.32 200.485 247.808 200.565 248.336C200.645 248.864 200.685 249.376 200.685 249.872V254.48C200.685 254.576 200.693 254.792 200.709 255.128C200.725 255.464 200.733 255.816 200.733 256.184C200.749 256.552 200.757 256.832 200.757 257.024C200.757 257.184 200.605 257.264 200.301 257.264C200.045 257.264 199.773 257.2 199.485 257.072C199.197 256.96 199.053 256.808 199.053 256.616V256.592ZM214.627 246.032C214.579 246.384 214.531 246.856 214.483 247.448C214.451 248.024 214.419 248.64 214.387 249.296C214.371 249.936 214.355 250.536 214.339 251.096C214.323 251.656 214.315 252.08 214.315 252.368C214.315 252.592 214.323 252.928 214.339 253.376C214.371 253.808 214.443 254.272 214.555 254.768C214.683 255.264 214.883 255.728 215.155 256.16C215.187 256.224 215.203 256.272 215.203 256.304C215.203 256.48 215.091 256.696 214.867 256.952C214.659 257.192 214.419 257.312 214.147 257.312C213.907 257.312 213.691 257.144 213.499 256.808C213.323 256.456 213.179 256.04 213.067 255.56C212.971 255.064 212.899 254.6 212.851 254.168C212.259 255.288 211.539 256.112 210.691 256.64C209.859 257.168 208.995 257.432 208.099 257.432C206.931 257.432 205.995 257.04 205.291 256.256C204.587 255.456 204.235 254.304 204.235 252.8C204.235 251.776 204.403 250.816 204.739 249.92C205.075 249.024 205.523 248.232 206.083 247.544C206.659 246.856 207.299 246.32 208.003 245.936C208.707 245.536 209.427 245.336 210.163 245.336C210.723 245.336 211.235 245.464 211.699 245.72C212.163 245.96 212.531 246.36 212.803 246.92V245.6C212.803 245.44 212.971 245.36 213.307 245.36C213.579 245.36 213.867 245.416 214.171 245.528C214.475 245.64 214.627 245.792 214.627 245.984V246.032ZM212.779 247.88C212.635 248.024 212.499 248.096 212.371 248.096C212.307 248.096 212.251 248.064 212.203 248C211.931 247.536 211.611 247.208 211.243 247.016C210.891 246.824 210.531 246.728 210.163 246.728C209.667 246.728 209.163 246.88 208.651 247.184C208.155 247.472 207.691 247.888 207.259 248.432C206.843 248.96 206.507 249.592 206.251 250.328C205.995 251.048 205.867 251.832 205.867 252.68C205.867 253.896 206.075 254.752 206.491 255.248C206.907 255.744 207.435 255.992 208.075 255.992C208.843 255.992 209.571 255.744 210.259 255.248C210.947 254.736 211.515 254.032 211.963 253.136C212.427 252.24 212.683 251.2 212.731 250.016C212.747 249.792 212.755 249.48 212.755 249.08C212.755 248.68 212.763 248.28 212.779 247.88ZM218.903 248.168C218.903 247.672 218.895 247.2 218.879 246.752C218.863 246.304 218.847 245.944 218.831 245.672C218.831 245.512 218.983 245.432 219.287 245.432C219.559 245.432 219.847 245.496 220.151 245.624C220.455 245.736 220.607 245.896 220.607 246.104C220.607 246.2 220.599 246.376 220.583 246.632C220.567 246.888 220.551 247.16 220.535 247.448C220.535 247.72 220.527 247.952 220.511 248.144C221.151 247.056 221.839 246.32 222.575 245.936C223.327 245.536 224.143 245.336 225.023 245.336C226.223 245.336 227.207 245.76 227.975 246.608C228.743 247.456 229.127 248.696 229.127 250.328C229.127 251.672 228.871 252.88 228.359 253.952C227.863 255.024 227.183 255.872 226.319 256.496C225.455 257.104 224.479 257.408 223.391 257.408C222.831 257.408 222.271 257.272 221.711 257C221.151 256.728 220.743 256.424 220.487 256.088V258.344C220.487 258.84 220.503 259.32 220.535 259.784C220.583 260.248 220.607 260.616 220.607 260.888C220.607 261.048 220.447 261.128 220.127 261.128C219.871 261.128 219.591 261.064 219.287 260.936C218.999 260.824 218.855 260.664 218.855 260.456C218.855 260.264 218.863 259.96 218.879 259.544C218.895 259.144 218.903 258.736 218.903 258.32V248.168ZM220.463 254.576C220.527 254.544 220.583 254.528 220.631 254.528C220.807 254.528 220.975 254.656 221.135 254.912C221.455 255.36 221.799 255.656 222.167 255.8C222.535 255.944 222.919 256.016 223.319 256.016C223.751 256.016 224.207 255.896 224.687 255.656C225.167 255.4 225.623 255.032 226.055 254.552C226.487 254.072 226.831 253.48 227.087 252.776C227.359 252.072 227.495 251.272 227.495 250.376C227.495 249.544 227.375 248.864 227.135 248.336C226.895 247.808 226.583 247.416 226.199 247.16C225.831 246.904 225.439 246.776 225.023 246.776C224.351 246.776 223.711 246.952 223.103 247.304C222.511 247.656 221.999 248.144 221.567 248.768C221.135 249.392 220.831 250.112 220.655 250.928C220.607 251.184 220.567 251.536 220.535 251.984C220.503 252.432 220.479 252.888 220.463 253.352C220.463 253.816 220.463 254.224 220.463 254.576ZM232.974 260.936C232.67 260.936 232.326 260.904 231.942 260.84C231.558 260.776 231.182 260.592 230.814 260.288C230.734 260.208 230.694 260.104 230.694 259.976C230.694 259.752 230.774 259.496 230.934 259.208C231.094 258.936 231.278 258.8 231.486 258.8C231.598 258.8 231.702 258.856 231.798 258.968C232.006 259.176 232.23 259.304 232.47 259.352C232.71 259.4 232.934 259.424 233.142 259.424C233.398 259.424 233.646 259.328 233.886 259.136C234.142 258.944 234.382 258.6 234.606 258.104L235.662 255.896L232.158 247.952C232.046 247.712 231.886 247.392 231.678 246.992C231.486 246.592 231.318 246.264 231.174 246.008C231.142 245.944 231.126 245.896 231.126 245.864C231.126 245.736 231.222 245.64 231.414 245.576C231.622 245.512 231.846 245.48 232.086 245.48C232.31 245.48 232.51 245.504 232.686 245.552C232.878 245.6 232.99 245.68 233.022 245.792C233.134 246.08 233.246 246.376 233.358 246.68C233.486 246.968 233.614 247.264 233.742 247.568L236.526 254.024L239.478 247.808C239.638 247.488 239.79 247.128 239.934 246.728C240.094 246.328 240.23 245.944 240.342 245.576C240.39 245.432 240.526 245.36 240.75 245.36C240.99 245.36 241.246 245.448 241.518 245.624C241.79 245.8 241.926 246.016 241.926 246.272C241.926 246.368 241.902 246.464 241.854 246.56C241.726 246.8 241.574 247.088 241.398 247.424C241.222 247.744 241.062 248.048 240.918 248.336L235.854 258.968C235.534 259.64 235.166 260.136 234.75 260.456C234.35 260.776 233.838 260.936 233.214 260.936H232.974Z" fill="#FF5733"/>
<defs>
<filter id="filter0_f_83_3" x="9" y="4" width="139.5" height="188" filterUnits="userSpaceOnUse" color-interpolation-filters="sRGB">
<feFlood flood-opacity="0" result="BackgroundImageFix"/>
<feBlend mode="normal" in="SourceGraphic" in2="BackgroundImageFix" result="shape"/>
<feGaussianBlur stdDeviation="2" result="effect1_foregroundBlur_83_3"/>
</filter>
<filter id="filter1_d_83_3" x="71" y="52" width="117.5" height="105" filterUnits="userSpaceOnUse" color-interpolation-filters="sRGB">
<feFlood flood-opacity="0" result="BackgroundImageFix"/>
<feColorMatrix in="SourceAlpha" type="matrix" values="0 0 0 0 0 0 0 0 0 0 0 0 0 0 0 0 0 0 127 0" result="hardAlpha"/>
<feOffset dy="4"/>
<feGaussianBlur stdDeviation="2"/>
<feComposite in2="hardAlpha" operator="out"/>
<feColorMatrix type="matrix" values="0 0 0 0 0 0 0 0 0 0 0 0 0 0 0 0 0 0 0.25 0"/>
<feBlend mode="normal" in2="BackgroundImageFix" result="effect1_dropShadow_83_3"/>
<feBlend mode="normal" in="SourceGraphic" in2="effect1_dropShadow_83_3" result="shape"/>
</filter>
</defs>
</svg>
