<svg width="400" height="400" viewBox="0 0 400 400" xmlns="http://www.w3.org/2000/svg">
    <!-- Fond -->
    <rect width="100%" height="100%" fill="white"/>

    <!-- Téléphone en perspective -->
    <polygon points="140,110 260,90 265,270 145,290" stroke="#6A0DAD" stroke-width="4" fill="none"/>

    <!-- Sac principal sortant du téléphone -->
    <polygon points="160,160 240,140 230,220 170,230" fill="#FFB300" stroke="#6A0DAD" stroke-width="3"/>
    <path d="M170,150 Q190,120 210,150" fill="none" stroke="#6A0DAD" stroke-width="3"/>

    <!-- Visage du sac principal -->
    <circle cx="185" cy="175" r="4" fill="black"/>
    <circle cx="205" cy="175" r="4" fill="black"/>
    <path d="M185,185 Q195,195 205,185" stroke="black" stroke-width="2" fill="none"/>

    <!-- Sac supplémentaire tenu en main -->
    <polygon points="220,190 250,180 245,220 215,230" fill="#6A0DAD" stroke="#6A0DAD" stroke-width="3"/>
    <path d="M220,190 Q225,170 235,170 Q245,170 250,190" stroke="#6A0DAD" stroke-width="2" fill="none"/>

    <!-- Bras et jambes du sac principal -->
    <path d="M160,190 Q140,170 130,180" stroke="#6A0DAD" stroke-width="3" fill="none"/>
    <path d="M240,190 Q260,170 270,180" stroke="#6A0DAD" stroke-width="3" fill="none"/>
    <path d="M170,230 Q160,260 150,270" stroke="#6A0DAD" stroke-width="3" fill="none"/>
    <path d="M230,220 Q240,250 250,270" stroke="#6A0DAD" stroke-width="3" fill="none"/>

    <!-- Texte centré -->
    <text x="200" y="340" font-family="Arial" font-size="24" font-weight="bold" fill="#6A0DAD" text-anchor="middle">Easy Market</text>
    <text x="200" y="370" font-family="Arial" font-size="18" font-weight="bold" fill="#FFB300" text-anchor="middle">Make yourself happy</text>
</svg>
