<svg width="400" height="400" viewBox="0 0 400 400" xmlns="http://www.w3.org/2000/svg">
    <!-- Fond -->
    <rect width="100%" height="100%" fill="white"/>

    <!-- Téléphone stylisé en perspective -->
    <polygon points="140,110 260,90 265,270 145,290" stroke="#6A0DAD" stroke-width="4" fill="none"/>

    <!-- Sac de shopping minimaliste en perspective -->
    <polygon points="150,190 230,170 210,260 170,270" fill="#FFB300" stroke="#6A0DAD" stroke-width="3"/>
    <path d="M170,180 Q190,140 210,180" fill="none" stroke="#6A0DAD" stroke-width="3"/>

    <!-- Visage du sac (simplifié) -->
    <circle cx="180" cy="200" r="4" fill="black"/>
    <circle cx="200" cy="200" r="4" fill="black"/>
    <path d="M180,215 Q190,225 200,215" stroke="black" stroke-width="2" fill="none"/>

    <!-- Bras et jambes simplifiés -->
    <path d="M150,220 Q130,200 120,210" stroke="#6A0DAD" stroke-width="2.5" fill="none"/>
    <path d="M230,220 Q250,200 260,210" stroke="#6A0DAD" stroke-width="2.5" fill="none"/>
    <path d="M170,270 Q160,290 150,300" stroke="#6A0DAD" stroke-width="2.5" fill="none"/>
    <path d="M210,260 Q220,280 230,300" stroke="#6A0DAD" stroke-width="2.5" fill="none"/>

    <!-- Texte centré et équilibré -->
    <text x="200" y="340" font-family="Arial" font-size="24" font-weight="bold" fill="#6A0DAD" text-anchor="middle">EILCO Market</text>
    <text x="200" y="370" font-family="Arial" font-size="18" font-weight="bold" fill="#FFB300" text-anchor="middle">Make you happy</text>
</svg>
