<svg width="264" height="264" viewBox="0 0 264 264" fill="none" xmlns="http://www.w3.org/2000/svg">
  <!-- Ombre animée -->
  <g filter="url(#filter0_f_83_3)">
    <path d="M72.2456 33.9986L117.279 163.174L82.2437 166.749L39.6362 30.6418L72.2456 33.9986Z" stroke="#DCCDCD" stroke-width="40">
      <!-- Animation de l'ombre -->
      <animate attributeName="opacity" values="0.5;1;0.5" dur="2s" repeatCount="indefinite" />
    </path>
  </g>

  <!-- Téléphone animé -->
  <g id="phone">
    <rect x="100" y="50" width="80" height="160" rx="10" ry="10" fill="purple" stroke="darkviolet" stroke-width="3">
      <!-- Animation de translation -->
      <animateTransform attributeName="transform" type="translate" values="0 0; 0 -5; 0 0" dur="1.5s" repeatCount="indefinite" />
    </rect>
    <rect x="110" y="60" width="60" height="140" fill="white" stroke="lightgray" stroke-width="2" />
    <circle cx="140" cy="200" r="5" fill="black" />
  </g>

  <!-- Bras animés -->
  <g id="arms">
    <path d="M120 120 Q90 100 80 120" stroke="orange" stroke-width="8" fill="none">
      <!-- Animation de rotation -->
      <animateTransform attributeName="transform" type="rotate" values="0 100 120; 10 100 120; -10 100 120; 0 100 120" dur="2s" repeatCount="indefinite" />
    </path>
    <path d="M170 120 Q200 100 210 120" stroke="orange" stroke-width="8" fill="none">
      <!-- Animation de rotation -->
      <animateTransform attributeName="transform" type="rotate" values="0 170 120; -10 170 120; 10 170 120; 0 170 120" dur="2s" repeatCount="indefinite" />
    </path>
  </g>

  <!-- Sac animé -->
  <g id="bag">
    <rect x="120" y="100" width="50" height="50" fill="orange" stroke="darkred" stroke-width="2" rx="5" ry="5">
      <!-- Animation de balancement -->
      <animateTransform attributeName="transform" type="rotate" values="0 145 125; 5 145 125; -5 145 125; 0 145 125" dur="1.5s" repeatCount="indefinite" />
    </rect>
    <path d="M125 100 Q135 80 145 100" stroke="darkred" stroke-width="2" fill="none" />
    <path d="M145 100 Q155 80 165 100" stroke="darkred" stroke-width="2" fill="none" />
    <circle cx="130" cy="120" r="2" fill="black" />
    <circle cx="160" cy="120" r="2" fill="black" />
    <path d="M130 130 Q145 140 160 130" stroke="black" stroke-width="2" fill="none" />
  </g>

  <!-- Jambes animées -->
  <g id="legs">
    <path d="M130 150 Q120 180 125 200" stroke="orange" stroke-width="8" fill="none">
      <!-- Animation de rotation -->
      <animateTransform attributeName="transform" type="rotate" values="0 130 175; 5 130 175; -5 130 175; 0 130 175" dur="1s" repeatCount="indefinite" />
    </path>
    <path d="M150 150 Q160 180 155 200" stroke="orange" stroke-width="8" fill="none">
      <!-- Animation de rotation -->
      <animateTransform attributeName="transform" type="rotate" values="0 150 175; -5 150 175; 5 150 175; 0 150 175" dur="1s" repeatCount="indefinite" />
    </path>
  </g>

  <!-- Autres éléments du logo (non animés) -->
  <path d="M80.5938 194.967L69.5498 193.268L64.0615 186.996L9.07305 13.1136L9.78622 7.05165L13.2635 4.15394L86.9172 11.8563L90.1946 14.4782L93.2806 21.9727L106.732 57.3463L147.804 180.066L145.765 186.862L140.646 188.568L80.5938 194.967Z" stroke="#6D0F87" stroke-width="8" />
  <path d="M177.218 139.043L213.665 137.439L214.091 145.616L177.279 144.912L177.218 139.043Z" stroke="#6D0F87" stroke-width="44" />
  <path d="M215.5 118.5L207.5 104.5L198.5 100.5L188.5 101.5L182.5 106L180.5 118.5" stroke="#6D0F87" stroke-width="4" />
  <g filter="url(#filter1_d_83_3)">
    <path d="M153.487 114.613L106.621 122.026L101.409 82.8284L141.276 77.7544L153.487 114.613Z" stroke="#FF5733" stroke-width="47" shape-rendering="crispEdges" />
  </g>
  <path d="M162.5 164L167 174L181.5 171.5L194 170.5L212 166.5L220 163.5" stroke="#6D0F87" stroke-width="3" />
  <path d="M234 164.5L244 163L247 160L245 141.5L240.5 120.5L238 107L201.5 114L183.5 120C183.5 120 191.5 130 186 127.5" stroke="#6D0F87" stroke-width="3" />
  <mask id="path-10-inside-2_83_3" fill="white">
    <path d="M118 149.5L116.5 143L124.5 141V146.5V150.5L124 157L122.5 161L120 165L115 167L110.5 168L103.5 167L100.5 166.5L95 162.5L97.5 165L99.5 168.5L101.5 172L102.5 177L101.5 180L99.5 181.5L97 183C96.3333 182.833 94.9 182.5 94.5 182.5C94 182.5 92.5 180.5 92.5 180C92.5 179.6 91.5 177.833 91 177L90.5 170V162.5V159L92 157.5L93.5 156.5L96 157.5L99.5 160.5C101.667 161.333 106.1 162.9 106.5 162.5C106.9 162.1 109 162.333 110 162.5L114.5 160L117 157.5L118 153.5V149.5Z" />
  </mask>
  <path d="M116.5 143L111.164 121.657L90.2056 126.897L95.0634 147.947L116.5 143ZM118 149.5H140V146.994L139.437 144.553L118 149.5ZM118 153.5L139.343 158.836L140 156.208V153.5H118ZM117 157.5L132.556 173.056L136.865 168.747L138.343 162.836L117 157.5ZM114.5 160L125.184 179.231L127.878 177.735L130.056 175.556L114.5 160ZM110 162.5L106.383 184.201L113.965 185.464L120.684 181.731L110 162.5ZM99.5 160.5L85.1826 177.204L88.0624 179.672L91.6025 181.034L99.5 160.5ZM96 157.5L110.317 140.796L107.552 138.426L104.171 137.074L96 157.5ZM93.5 156.5L101.671 136.074L90.9256 131.776L81.2966 138.195L93.5 156.5ZM92 157.5L79.7966 139.195L77.984 140.403L76.4437 141.944L92 157.5ZM90.5 159L74.9437 143.444L68.5 149.887V159H90.5ZM90.5 170H68.5V170.785L68.5559 171.567L90.5 170ZM91 177L69.0559 178.567L69.4305 183.811L72.1352 188.319L91 177ZM97 183L91.6642 204.343L100.505 206.553L108.319 201.865L97 183ZM99.5 181.5L110.819 200.365L111.792 199.781L112.7 199.1L99.5 181.5ZM101.5 180L114.7 197.6L120.198 193.477L122.371 186.957L101.5 180ZM102.5 177L123.371 183.957L125.219 178.414L124.073 172.685L102.5 177ZM101.5 172L123.073 167.685L122.373 164.185L120.601 161.085L101.5 172ZM97.5 165L116.601 154.085L115.14 151.527L113.056 149.444L97.5 165ZM95 162.5L107.94 144.708L79.4437 178.056L95 162.5ZM100.5 166.5L87.5602 184.292L91.7604 187.347L96.8832 188.201L100.5 166.5ZM103.5 167L99.8832 188.701L100.136 188.743L100.389 188.779L103.5 167ZM110.5 168L107.389 189.779L111.358 190.346L115.272 189.476L110.5 168ZM115 167L119.772 188.476L121.514 188.089L123.171 187.426L115 167ZM120 165L128.171 185.426L134.846 182.756L138.656 176.66L120 165ZM122.5 161L141.156 172.66L142.325 170.79L143.099 168.725L122.5 161ZM124 157L144.599 164.725L145.696 161.801L145.935 158.687L124 157ZM124.5 150.5L146.435 152.187L146.5 151.345V150.5H124.5ZM124.5 141H146.5V112.823L119.164 119.657L124.5 141ZM95.0634 147.947L96.5634 154.447L139.437 144.553L137.937 138.053L95.0634 147.947ZM96 149.5V153.5H140V149.5H96ZM96.6569 148.164L95.6569 152.164L138.343 162.836L139.343 158.836L96.6569 148.164ZM101.444 141.944L98.9437 144.444L130.056 175.556L132.556 173.056L101.444 141.944ZM103.816 140.769L99.3159 143.269L120.684 181.731L125.184 179.231L103.816 140.769ZM113.617 140.799C112.528 140.618 110.81 140.384 108.941 140.307C108.074 140.27 106.427 140.231 104.492 140.46C103.53 140.574 101.886 140.821 99.9559 141.445C98.3232 141.973 94.5044 143.383 90.9437 146.944L122.056 178.056C118.596 181.517 114.93 182.847 113.493 183.311C111.758 183.872 110.352 184.074 109.658 184.156C108.261 184.321 107.276 184.275 107.109 184.268C106.64 184.249 106.472 184.215 106.383 184.201L113.617 140.799ZM90.9437 146.944C95.5106 142.377 100.62 141.249 102.33 140.929C104.5 140.522 106.227 140.549 107.004 140.579C108.617 140.64 109.769 140.882 109.959 140.921C110.541 141.041 110.711 141.116 110.214 140.961C109.396 140.705 108.223 140.284 107.398 139.966L91.6025 181.034C92.9432 181.549 95.0711 182.328 97.1109 182.964C98.043 183.255 99.5316 183.699 101.125 184.025C101.821 184.168 103.402 184.474 105.343 184.547C106.284 184.583 108.149 184.604 110.429 184.177C112.248 183.836 117.439 182.673 122.056 178.056L90.9437 146.944ZM113.817 143.796L110.317 140.796L81.6826 174.204L85.1826 177.204L113.817 143.796ZM104.171 137.074L101.671 136.074L85.3294 176.926L87.8294 177.926L104.171 137.074ZM81.2966 138.195L79.7966 139.195L104.203 175.805L105.703 174.805L81.2966 138.195ZM76.4437 141.944L74.9437 143.444L106.056 174.556L107.556 173.056L76.4437 141.944ZM68.5 159V162.5H112.5V159H68.5ZM68.5 162.5V170H112.5V162.5H68.5ZM68.5559 171.567L69.0559 178.567L112.944 175.433L112.444 168.433L68.5559 171.567ZM72.1352 188.319C72.242 188.497 72.3941 188.766 72.4545 188.881C72.502 188.971 72.3561 188.704 72.1426 188.211C72.0427 187.98 71.782 187.366 71.509 186.515C71.3696 186.081 71.1578 185.372 70.9672 184.473C70.7991 183.681 70.5 182.07 70.5 180H114.5C114.5 176.348 113.559 173.552 113.403 173.066C113.073 172.039 112.731 171.215 112.529 170.749C112.113 169.785 111.685 168.949 111.42 168.444C110.856 167.368 110.258 166.336 109.865 165.681L72.1352 188.319ZM70.5 180C70.5 184.514 71.9166 187.881 72.2065 188.588C72.7442 189.902 73.309 190.94 73.6765 191.579C74.4344 192.895 75.243 194.039 75.9468 194.944C76.6166 195.805 77.6594 197.054 79.0296 198.322C79.6827 198.927 80.9046 200.001 82.5921 201.058C83.5952 201.686 88.0577 204.5 94.5 204.5V160.5C100.817 160.5 105.124 163.252 105.949 163.769C107.459 164.714 108.481 165.628 108.924 166.037C109.872 166.915 110.446 167.632 110.678 167.931C110.944 168.273 111.347 168.824 111.808 169.624C112.027 170.005 112.471 170.805 112.924 171.914C113.13 172.416 114.5 175.611 114.5 180H70.5ZM94.5 204.5C93.8067 204.5 93.2521 204.466 92.9182 204.44C92.5619 204.413 92.2728 204.382 92.0773 204.358C91.698 204.313 91.4234 204.268 91.3124 204.249C91.0894 204.212 90.9954 204.19 91.0902 204.21C91.259 204.246 91.5171 204.306 91.6642 204.343L102.336 161.657C101.816 161.527 101.024 161.338 100.21 161.165C99.813 161.081 99.244 160.965 98.6188 160.86C98.4742 160.836 96.653 160.5 94.5 160.5V204.5ZM108.319 201.865L110.819 200.365L88.1811 162.635L85.6811 164.135L108.319 201.865ZM112.7 199.1L114.7 197.6L88.3 162.4L86.3 163.9L112.7 199.1ZM122.371 186.957L123.371 183.957L81.629 170.043L80.629 173.043L122.371 186.957ZM124.073 172.685L123.073 167.685L79.9272 176.315L80.9272 181.315L124.073 172.685ZM120.601 161.085L118.601 157.585L80.3987 179.415L82.3987 182.915L120.601 161.085ZM118.601 157.585L116.601 154.085L78.3987 175.915L80.3987 179.415L118.601 157.585ZM113.056 149.444L110.556 146.944L79.4437 178.056L81.9437 180.556L113.056 149.444ZM82.0602 180.292L87.5602 184.292L113.44 148.708L107.94 144.708L82.0602 180.292ZM96.8832 188.201L99.8832 188.701L107.117 145.299L104.117 144.799L96.8832 188.201ZM100.389 188.779L107.389 189.779L113.611 146.221L106.611 145.221L100.389 188.779ZM115.272 189.476L119.772 188.476L110.228 145.524L105.728 146.524L115.272 189.476ZM123.171 187.426L128.171 185.426L111.829 144.574L106.829 146.574L123.171 187.426ZM138.656 176.66L141.156 172.66L103.844 149.34L101.344 153.34L138.656 176.66ZM143.099 168.725L144.599 164.725L103.401 149.275L101.901 153.275L143.099 168.725ZM145.935 158.687L146.435 152.187L102.565 148.813L102.065 155.313L145.935 158.687ZM146.5 150.5V146.5H102.5V150.5H146.5ZM146.5 146.5V141H102.5V146.5H146.5ZM119.164 119.657L111.164 121.657L121.836 164.343L129.836 162.343L119.164 119.657Z" fill="#FF5733" mask="url(#path-10-inside-2_83_3)" />
  <mask id="path-12-inside-3_83_3" fill="white">
    <path d="M57.5001 99.5L64.5001 96.5V102.5L62.5001 103.5L59.5001 105L57.0001 108.5L55.5001 11 124.867L182.439 178.133L185.439 177.633L176.561 124.367ZM156.917 134.633L154.917 137.133L197.083 170.867L199.083 168.367L156.917 134.633ZM150.386 145.462L149.386 148.462L200.614 165.538L201.614 162.538L150.386 145.462ZM148 157V167H202V157H148ZM148.643 172.857L149.643 177.357L202.357 165.643L201.357 161.143L148.643 172.857ZM199.152 157.609L196.152 152.609L149.848 180.391L152.848 185.391L199.152 157.609ZM193.742 149.215L188.742 143.215L147.258 177.785L152.258 183.785L193.742 149.215ZM189.971 144.807L179.971 130.807L136.029 162.193L146.029 176.193L189.971 144.807ZM178.18 128.562L170.18 119.562L129.82 155.438L137.82 164.438L178.18 128.562ZM144.705 111.024L134.705 113.024L145.295 165.976L155.295 163.976L144.705 111.024Z" fill="#FF5733" mask="url(#path-14-inside-4_83_3)" />
  <path d="M194.69 101.595L194.564 102.036L193.219 100.019L193.976 100.524L194.69 101.595Z" stroke="#FF5733" stroke-width="7" />
  <path d="M43.5 66.5L72 20.5M55 64.5L69 42.5M43.5 47.5C44.7 46.3 55 31.3333 60 24" stroke="black" />
  <path d="M127 105.5L128.5 102H131L131.5 104L132.5 105.5L131 107.5" stroke="black" />
  <path d="M96.5 70.5L92 36.5L93.5 25.5L98.5 22L104.5 20L112 20.5L118 23L123.5 28.5L131.5 42L134.5 49.5L136 55L138 62" stroke="#6D0F87" stroke-width="5" />
  <path d="M124 56.5L123 49.5L118 40.5L112.5 34L105.5 26.5L98 23H94H90L87.5 26.5L83.5 32.5L80.5 39.5L80 50.5L80.5 55L81.5 62" stroke="#6D0F87" stroke-width="5" />
  <path d="M128.5 81L133 78H135L139 80M110 85L111.5 83L113 81L114.5 80H116.5L119 81" stroke="black" />
  <path d="M130.5 63L143.5 61.5V65L141.5 67.5L139 69.5H134.5L131.5 68L130.5 65V63.5M108.5 107.5C108.5 107.5 115 114.5 119.5 115C124 115.5 126 115.5 126 115.5C126 115.5 131.374 115.813 134 114.5C134 114.5 137.5 113.5 140 111C142.5 108.5 143 107.25 143 107.25L145.5 103.5M92 70.5C93.6 70.9 101.667 70 105.5 69.5L106 72.5L104.5 74.5L102.5 76.5L100.5 77.5L95 76.5L92.5 74.5L92 70.5Z" stroke="black" />
  <ellipse cx="117.98" cy="96.9395" rx="5.72237" ry="8.71331" transform="rotate(-11.0258 117.98 96.9395)" fill="#0E0E0E" />
  <ellipse cx="117.98" cy="96.9395" rx="5.72237" ry="8.71331" transform="rotate(-11.0258 117.98 96.9395)" fill="#0E0E0E" />
  <ellipse cx="117.98" cy="96.9395" rx="5.72237" ry="8.71331" transform="rotate(-11.0258 117.98 96.9395)" fill="#0E0E0E" />
  <ellipse cx="118" cy="97" rx="5.53203" ry="8.20954" transform="rotate(-11.0258 118 97)" fill="#0E0E0E" />
  <ellipse cx="118" cy="97" rx="5.53203" ry="8.20954" transform="rotate(-11.0258 118 97)" fill="#0E0E0E" />
  <ellipse cx="118" cy="97" rx="5.53203" ry="8.20954" transform="rotate(-11.0258 118 97)" fill="white" />
  <ellipse cx="118.5" cy="97.6313" rx="2.95727" ry="3.12323" transform="rotate(-11.0258 118.5 97.6313)" fill="#0E0E0E" />
  <ellipse cx="118.5" cy="97.6313" rx="2.95727" ry="3.12323" transform="rotate(-11.0258 118.5 97.6313)" fill="#0E0E0E" />
  <ellipse cx="118.5" cy="97.6313" rx="2.95727" ry="3.12323" transform="rotate(-11.0258 118.5 97.6313)" fill="#020202" />
  <ellipse cx="136.283" cy="93.6465" rx="5.72237" ry="8.71331" transform="rotate(-11.0258 136.283 93.6465)" fill="#0E0E0E" />
  <ellipse cx="136.283" cy="93.6465" rx="5.72237" ry="8.71331" transform="rotate(-11.0258 136.283 93.6465)" fill="#0E0E0E" />
  <ellipse cx="136.283" cy="93.6465" rx="5.72237" ry="8.71331" transform="rotate(-11.0258 136.283 93.6465)" fill="#0E0E0E" />
  <ellipse cx="136.303" cy="93.707" rx="5.53203" ry="8.20954" transform="rotate(-11.0258 136.303 93.707)" fill="#0E0E0E" />
  <ellipse cx="136.303" cy="93.707" rx="5.53203" ry="8.20954" transform="rotate(-11.0258 136.303 93.707)" fill="#0E0E0E" />
  <ellipse cx="136.303" cy="93.707" rx="5.53203" ry="8.20954" transform="rotate(-11.0258 136.303 93.707)" fill="white" />
  <ellipse cx="137" cy="94.5654" rx="2.47901" ry="2.96338" transform="rotate(-11.0258 137 94.5654)" fill="#0E0E0E" />
  <ellipse cx="137" cy="94.5654" rx="2.47901" ry="2.96338" transform="rotate(-11.0258 137 94.5654)" fill="#0E0E0E" />
  <ellipse cx="137" cy="94.5654" rx="2.47901" ry="2.96338" transform="rotate(-11.0258 137 94.5654)" fill="#020202" />
  <mask id="path-29-inside-5_83_3" fill="white">
    <path d="M145 180.5L67.5 187L74 192.5L141 187L145 180.5Z" />
  </mask>
  <path d="M67.5 187L66.915 180.024L50.0873 181.436L62.9784 192.344L67.5 187ZM145 180.5L150.962 184.169L158.225 172.366L144.415 173.524L145 180.5ZM141 187L141.573 193.977L145.104 193.687L146.962 190.669L141 187ZM74 192.5L69.4784 197.844L71.688 199.713L74.5727 199.477L74 192.5ZM68.085 193.976L145.585 187.476L144.415 173.524L66.915 180.024L68.085 193.976ZM139.038 176.831L135.038 183.331L146.962 190.669L150.962 184.169L139.038 176.831ZM140.427 180.023L73.4273 185.523L74.5727 199.477L141.573 193.977L140.427 180.023ZM78.5216 187.156L72.0216 181.656L62.9784 192.344L69.4784 197.844L78.5216 187.156Z" fill="#6D0F87" mask="url(#path-29-inside-5_83_3)" />
  <ellipse cx="109.5" cy="187.5" rx="4.5" ry="3.5" fill="#1E1E1E" />
  <path d="M5.64 202H21.24V206.52H7.48L6.76 207.32V213.6H16V218.12H6.76V223.72L7.92 225.48H21.24V230H5.52L1.92 224.64V205.8L5.64 202ZM29.5044 207.88H42.8644L45.6644 212V230H40.8244V228.68L38.6244 230H29.9044L26.3044 224.64V222.52L32.7444 215.8H40.8244V212.32H29.5044V207.88ZM31.3044 223.76L32.0644 225.48H40.6644V220.36H34.5444L31.3044 223.68V223.76ZM54.4088 207.68H66.0888L68.8088 211.64L65.6888 214.88L63.7688 212.08H56.4088L55.6888 212.72V214.56L56.8088 216.2H66.1688L69.2888 220.84V226.48L66.1288 230H52.8088L50.6488 226.64L53.7688 223.44L55.1688 225.48H64.0488L64.4488 225.04V221.8L63.6888 220.68H54.3288L50.8888 215.52V211.12L54.4088 207.68ZM88.7531 207.96H93.5931V231.44L86.6331 238.68H74.3131V234.16H84.6331L88.7531 230H78.6731L74.3131 223.56V207.96H79.1531V222.68L81.1131 225.52H88.7531V207.96ZM121.482 207.96H126.322V209.28L128.482 207.96H130.802L132.482 210.44L136.562 207.96H138.802L142.402 213.28V230H137.562V214.16L136.442 212.44H135.122L134.402 213.28V218.92H129.562V214.16L128.402 212.44H127.042L126.322 213.28V230H121.482V207.96ZM149.426 207.88H162.786L165.586 212V230H36C77.2183 245.336 78.0023 245.512 78.5783 245.864C79.1703 246.2 79.5863 246.64 79.8263 247.184C80.0823 247.712 80.2103 248.264 80.2103 248.84C80.2103 249.384 80.1623 249.816 80.0663 250.136C79.9863 250.456 79.7863 250.72 79.4663 250.928C79.1463 251.12 78.6263 251.328 77.9063 251.552C77.1863 251.776 76.3223 251.96 75.3143 252.104C74.3223 252.232 73.1943 252.296 71.9303 252.296H71.6183ZM72.2903 250.952C73.4743 250.952 74.4663 250.888 75.2663 250.76C76.0663 250.616 76.7303 250.472 77.2583 250.328C77.8343 250.152 78.2023 249.96 78.3623 249.752C78.5383 249.544 78.6263 249.232 78.6263 248.816C78.6263 247.424 77.8183 246.728 76.2023 246.728C75.6103 246.728 75.0663 246.864 74.5703 247.136C74.0743 247.408 73.6343 247.76 73.2503 248.192C72.8823 248.624 72.5703 249.088 72.3143 249.584C72.0743 250.064 71.9063 250.52 71.8103 250.952H72.2903ZM92.5362 260.936C92.2322 260.936 91.8882 260.904 91.5042 260.84C91.1202 260.776 90.7442 260.592 90.3762 260.288C90.2962 260.208 90.2562 260.104 90.2562 259.976C90.2562 259.752 90.3362 259.496 90.4962 259.208C90.6562 258.936 90.8402 258.8 91.0482 258.8C91.1602 258.8 91.2642 258.856 91.3602 258.968C91.5682 259.176 91.7922 259.304 92.0322 259.352C92.2722 259.4 92.4962 259.424 92.7042 259.424C92.9602 259.424 93.2082 259.328 93.4482 259.136C93.7042 258.944 93.9442 258.6 94.1682 258.104L95.2242 255.896L91.7202 247.952C91.6082 247.712 91.4482 247.392 91.2402 246.992C91.0482 246.592 90.8802 246.264 90.7362 246.008C90.7042 245.944 90.6882 245.896 90.6882 245.864C90.6882 245.736 90.7842 245.64 90.9762 245.576C91.1842 245.512 91.4082 245.48 91.6482 245.48C91.8722 245.48 92.0722 245.504 92.2482 245.552C92.4402 245.6 92.5522 245.68 92.5842 245.792C92.6962 246.08 92.8082 246.376 92.9202 246.68C93.0482 246.968 93.1762 247.264 93.3042 247.568L96.0882 254.024L99.0402 247.808C99.2002 247.488 99.3522 247.128 99.4962 246.728C99.6562 246.328 99.7922 245.944 99.9042 245.576C99.9522 245.432 100.088 245.36 100.312 245.36C100.552 245.36 100.808 245.448 101.08 245.624C101.352 245.8 101.488 246.016 101.488 246.272C101.488 246.368 101.464 246.464 101.416 246.56C101.288 246.8 101.136 247.088 100.96 247.424C100.784 247.744 100.624 248.048 100.48 248.336L95.4162 258.968C95.0962 259.64 94.7282 260.136 94.3122 260.456C93.9122 260.776 93.4002 260.936 92.7762 260.936H92.5362ZM106.648 246.32C106.968 246.08 107.352 245.856 107.8 245.648C108.248 245.44 108.808 245.336 109.48 245.336C110.392 245.336 111.2 245.568 111.904 246.032C112.608 246.496 113.152 247.16 113.536 248.024C113.936 248.872 114.136 249.904 114.136 251.12C114.136 251.888 114.008 252.648 113.752 253.4C113.512 254.136 113.144 254.816 112.648 255.44C112.168 256.048 111.568 256.536 110.848 256.904C110.144 257.256 109.328 257.432 108.4 257.432C106.8 257.432 105.552 256.952 104.656 255.992C103.776 255.016 103.336 253.696 103.336 252.032C103.336 251.328 103.448 250.632 103.672 249.944C103.912 249.24 104.192 248.6 104.512 248.024C104.848 247.448 105.176 246.984 105.496 246.632C105.816 246.28 106.064 246.104 106.24 246.104C106.4 246.104 106.536 246.176 106.648 246.32ZM108.4 255.968C109.184 255.968 109.88 255.76 110.488 255.344C111.112 254.912 111.608 254.328 111.976 253.592C112.344 252.856 112.528 252.032 112.528 251.12C112.528 249.792 112.264 248.736 111.736 247.952C111.224 247.168 110.424 246.776 109.336 246.776C108.696 246.776 108.104 246.928 107.56 247.232C107.032 247.536 106.568 247.944 106.168 248.456C105.784 248.968 105.48 249.536 105.256 250.16C105.048 250.768 104.944 251.384 104.944 252.008C104.944 253.32 105.24 254.312 105.832 254.984C106.44 255.64 107.296 255.968 108.4 255.968ZM127.469 246.032C127.421 246.32 127.357 246.928 127.277 247.856C127.213 248.784 127.181 249.936 127.181 251.312C127.181 251.44 127.181 251.696 127.181 252.08C127.197 252.448 127.229 252.88 127.277 253.376C127.341 253.872 127.437 254.368 127.565 254.864C127.693 255.36 127.869 255.792 128.093 256.16C128.109 256.192 128.117 256.24 128.117 256.304C128.117 256.48 128.005 256.696 127.781 256.952C127.573 257.192 127.333 257.312 127.061 257.312C126.853 257.312 126.677 257.208 126.533 257C126.389 256.776 126.269 256.496 126.173 256.16C126.077 255.824 125.997 255.488 125.933 255.152C125.885 254.8 125.853 254.504 125.837 254.264C125.405 255.144 124.781 255.896 123.965 256.52C123.165 257.128 122.269 257.432 121.277 257.432C120.349 257.432 119.621 257.216 119.093 256.784C118.581 256.352 118.213 255.792 117.989 255.104C117.781 254.416 117.677 253.68 117.677 252.896V248.168C117.677 248.072 117.669 247.856 117.653 247.52C117.637 247.184 117.621 246.832 117.605 246.464C117.605 246.08 117.605 245.8 117.605 245.624C11.528 220.975 254.656 221.135 254.912C221.455 255.36 221.799 255.656 222.167 255.8C222.535 255.944 222.919 256.016 223.319 256.016C223.751 256.016 224.207 255.896 224.687 255.656C225.167 255.4 225.623 255.032 226.055 254.552C226.487 254.072 226.831 253.48 227.087 252.776C227.359 252.072 227.495 251.272 227.495 250.376C227.495 249.544 227.375 248.864 227.135 248.336C226.895 247.808 226.583 247.416 226.199 247.16C225.831 246.904 225.439 246.776 225.023 246.776C224.351 246.776 223.711 246.952 223.103 247.304C222.511 247.656 221.999 248.144 221.567 248.768C221.135 249.392 220.831 250.112 220.655 250.928C220.607 251.184 220.567 251.536 220.535 251.984C220.503 252.432 220.479 252.888 220.463 253.352C220.463 253.816 220.463 254.224 220.463 254.576ZM232.974 260.936C232.67 260.936 232.326 260.904 231.942 260.84C231.558 260.776 231.182 260.592 230.814 260.288C230.734 260.208 230.694 260.104 230.694 259.976C230.694 259.752 230.774 259.496 230.934 259.208C231.094 258.936 231.278 258.8 231.486 258.8C231.598 258.8 231.702 258.856 231.798 258.968C232.006 259.176 232.23 259.304 232.47 259.352C232.71 259.4 232.934 259.424 233.142 259.424C233.398 259.424 233.646 259.328 233.886 259.136C234.142 258.944 234.382 258.6 234.606 258.104L235.662 255.896L232.158 247.952C232.046 247.712 231.886 247.392 231.678 246.992C231.486 246.592 231.318 246.264 231.174 246.008C231.142 245.944 231.126 245.896 231.126 245.864C231.126 245.736 231.222 245.64 231.414 245.576C231.622 245.512 231.846 245.48 232.086 245.48C232.31 245.48 232.51 245.504 232.686 245.552C232.878 245.6 232.99 245.68 233.022 245.792C233.134 246.08 233.246 246.376 233.358 246.68C233.486 246.968 233.614 247.264 233.742 247.568L236.526 254.024L239.478 247.808C239.638 247.488 239.79 247.128 239.934 246.728C240.094 246.328 240.23 245.944 240.342 245.576C240.39 245.432 240.526 245.36 240.75 245.36C240.99 245.36 241.246 245.448 241.518 245.624C241.79 245.8 241.926 246.016 241.926 246.272C241.926 246.368 241.902 246.464 241.854 246.56C241.726 246.8 241.574 247.088 241.398 247.424C241.222 247.744 241.062 248.048 240.918 248.336L235.854 258.968C235.534 259.64 235.166 260.136 234.75 260.456C234.35 260.776 233.838 260.936 233.214 260.936H232.974Z" fill="#FF5733" />
  <defs>
    <filter id="filter0_f_83_3" x="9" y="4" width="139.5" height="188" filterUnits="userSpaceOnUse" color-interpolation-filters="sRGB">
      <feFlood flood-opacity="0" result="BackgroundImageFix" />
      <feBlend mode="normal" in="SourceGraphic" in2="BackgroundImageFix" result="shape" />
      <feGaussianBlur stdDeviation="2" result="effect1_foregroundBlur_83_3" />
    </filter>
    <filter id="filter1_d_83_3" x="71" y="52" width="117.5" height="105" filterUnits="userSpaceOnUse" color-interpolation-filters="sRGB">
      <feFlood flood-opacity="0" result="BackgroundImageFix" />
      <feColorMatrix in="SourceAlpha" type="matrix" values="0 0 0 0 0 0 0 0 0 0 0 0 0 0 0 0 0 0 127 0" result="hardAlpha" />
      <feOffset dy="4" />
      <feGaussianBlur stdDeviation="2" />
      <feComposite in2="hardAlpha" operator="out" />
      <feColorMatrix type="matrix" values="0 0 0 0 0 0 0 0 0 0 0 0 0 0 0 0 0 0 0.25 0" />
      <feBlend mode="normal" in2="BackgroundImageFix" result="effect1_dropShadow_83_3" />
      <feBlend mode="normal" in="SourceGraphic" in2="effect1_dropShadow_83_3" result="shape" />
    </filter>
  </defs>
</svg>